<svg xmlns="http://www.w3.org/2000/svg" viewBox="0 0 124.33 47.64"><defs><style>.cls-1,.cls-4{fill:#1a3c34;}.cls-1,.cls-3{fill-rule:evenodd;}.cls-2{fill:#9d9d9c;}.cls-3{fill:#1d1d1b;}</style></defs><g id="Capa_2" data-name="Capa 2"><g id="Capa_1-2" data-name="Capa 1"><path class="cls-1" d="M33.61,32.41a2.31,2.31,0,0,1-1.49-.4c-.72-.49-.86-1-.88-2.27s.28-15.62.28-16.56-.33-2.79,1.85-3.07c.35-.16.22-1.23.22-1.23l-4,0L25.79,20.51c.1-5.89.3-17.15.45-17.82a2.28,2.28,0,0,1,1.83-1.63c0-.54,0-1,0-1L21.89,0V.77s1.44.65,1.78,1.52.14,4.36.14,5.18,0,1.34,0,1.34l-8.1,0a39.85,39.85,0,0,1,.09-4.51c.18-1.55.25-2.42,1-2.86A3.68,3.68,0,0,1,18.4,1V0L11.05,0l0,.82s1.82.15,2.19,2.6a86.07,86.07,0,0,1,.36,11.36c-.08,3.65.24,8-1.05,9.6-.58.74-1.33.71-1.33.85v.83h5.91a4.72,4.72,0,0,0,0-.73C16.86,25,15.65,25,15.57,24s0-13.51,0-13.51h2.82l-.19,8.81s-.12,7-.12,8.45a10.51,10.51,0,0,1-.45,3.65,4.35,4.35,0,0,1-2.27,1.05c-.19,0,0,.84,0,.84l7.49,0-.07-.86a5.93,5.93,0,0,1-1.86-.82,5,5,0,0,1-.65-3c0-1.53-.19-9.78-.19-10.67S20,14.46,20,14.46l3.45,9.81-1.6,1.5,2.15,0v0l1.21,0v0l2.34.05-1.73-1.77,3.74-10.4s-.72,15.5-.77,16.35-.27,1.7-1.07,2c-.56.2-1,.25-1.38.38,0,.34,0,.4,0,.53,0,.43.06.39.06.39l7.27-.09ZM24,10.47,23.91,20.8,20.16,10.47Z"/><path class="cls-2" d="M20,41.93a1.51,1.51,0,0,0,.5.09,2.23,2.23,0,0,0,1.27-.52l.17-.12h0v0a3,3,0,0,0-1.32-1.44,2.07,2.07,0,0,0-1.4,0,1.63,1.63,0,0,1-.42.08,3.56,3.56,0,0,1-.43-.05c-.26,0-.48-.07-.56,0a.18.18,0,0,0,0,.18A4.81,4.81,0,0,0,20,41.93"/><path class="cls-2" d="M22.59,44.36v0a4,4,0,0,0-2.81-2A12.27,12.27,0,0,0,17,42.26a7.61,7.61,0,0,0-2.24.43c-.23.1-.26.13-.26.17s.08,0,.24.06a2.12,2.12,0,0,1,1.45.56l.25.27a2.68,2.68,0,0,0,2.27,1.12h.43a16.22,16.22,0,0,0,3.48-.52Z"/><path class="cls-2" d="M3.84,12.14s0,0,0,0,0,0,.05,0a.75.75,0,0,1,.3,0,2.87,2.87,0,0,0,.44,0,2.83,2.83,0,0,0,2.43-1.33,3.06,3.06,0,0,0,.46-1.73,3,3,0,0,1,.15-1,12.61,12.61,0,0,1,.61-1.48l0,0-.9-.06A3.58,3.58,0,0,0,4.54,8a4.69,4.69,0,0,0-.75,3.34,1.68,1.68,0,0,1,0,.84"/><path class="cls-2" d="M.69,7.51c.37.31.37,1.16.38,2.07,0,.29,0,.58,0,.87A11.22,11.22,0,0,0,3,14.83c.17.16.32.28.45.39s.43.34.41.54a.66.66,0,0,1-.19.37c-.1.14-.2.27-.15.44s0,.16.06.25c.06.3.13.62.3.62s.57-.68.68-1.35a5.22,5.22,0,0,0-.26-2.87c-.17-.31-.34-.58-.51-.84a8.5,8.5,0,0,1-.7-1.29,11.77,11.77,0,0,1-.47-1.8l-.16-.74A2.55,2.55,0,0,0,1.38,6.87l-.17-.16C.56,6.14.34,6,.13,6h0a.29.29,0,0,0-.07.41c0,.08.07.17.11.27a1.68,1.68,0,0,0,.53.86"/><path class="cls-2" d="M16,41.82h.5c.45,0,1.08-.07,1.25-.32a.26.26,0,0,0,0-.24c-.08-.31-.59-.71-1.12-1.13-.29-.23-.58-.46-.82-.69A14.39,14.39,0,0,0,13,37.92c-.7-.32-1.36-.62-1.67-.81a3,3,0,0,1-.95-1A5.84,5.84,0,0,0,9.48,35,3,3,0,0,0,8,34.29H8.3a5.65,5.65,0,0,0,1.63-.2c.76-.26.87-.67.87-.69h0a9.06,9.06,0,0,0-1-.89,5.73,5.73,0,0,0,.49-.79,8.65,8.65,0,0,0,.2-3c0-.18,0-.32,0-.4a1.11,1.11,0,0,1,.18-.54c.06-.09.09-.14.07-.18s0,0-.11,0c-.32,0-1.69,1.61-2,1.93h0s-.42.82-.67,1.33a1.68,1.68,0,0,0-.13.66,2.5,2.5,0,0,0-.69-.12H6.4a4,4,0,0,1,0-.49A5.37,5.37,0,0,0,5,28.38L5,28.3a1.58,1.58,0,0,0,.26-.09.7.7,0,0,1,.28-.09c.28,0,1.07-.82,1.23-1.61a6.14,6.14,0,0,0-.34-2.32,3.81,3.81,0,0,1-.1-.42,1,1,0,0,1,.07-.47c0-.08,0-.12,0-.14a.12.12,0,0,0-.08,0l-.07,0a9.33,9.33,0,0,0-1.11.62h0a6.38,6.38,0,0,1-.79.71h0a4,4,0,0,0-.25-1.11,1.33,1.33,0,0,0-.29-.31.5.5,0,0,0,0-.16c0-.32.54-.91,1-1.38a6.3,6.3,0,0,0,.54-.67,9.22,9.22,0,0,0,.8-3.45c0-1,.15-1,.28-1.13a.54.54,0,0,0,.22-.26,1.21,1.21,0,0,1,.22-.33c.09-.1.13-.14.07-.5,0-.11-.06-.17-.11-.19s-.33.15-.56.37a3,3,0,0,1-.44.39,3.55,3.55,0,0,0-1.06,2,8.29,8.29,0,0,1-.79,2,1,1,0,0,1-.14.15,2.1,2.1,0,0,0,0-.34c0-.2,0-.46,0-.82A3,3,0,0,0,2.07,16a3.29,3.29,0,0,0-1.73-.34H.15v0a11.08,11.08,0,0,1,.5,1.64,3.44,3.44,0,0,1,.06.6,6.2,6.2,0,0,0,.05.79c.09.74.84,1.27,2,1.43A1.18,1.18,0,0,0,3,21a3.35,3.35,0,0,1,.14,1.56,4.34,4.34,0,0,0,0,.8c0,.22.1.29.17.31v.19c0,.1,0,.21,0,.31a6.25,6.25,0,0,0,.51,2c0,.09.09.14.15.14h0l0,0c0,.12.08.26.12.42a2.4,2.4,0,0,1,.15.59.39.39,0,0,1-.18.32c-.29-.21-.56-.38-.71-.47a6.89,6.89,0,0,1-1.27-1.52c-.13-.22-.94-.33-1.62-.39H.35v0a1.36,1.36,0,0,0,0,.46c0,.17.39.33.75.49l.19.09.54.5c.13.21.27.49.42.8a13.32,13.32,0,0,0,.94,1.7,4,4,0,0,0,2,1.44A2.19,2.19,0,0,1,5.8,31a.69.69,0,0,1,.2.36A6.56,6.56,0,0,0,3.19,32c-.11.11-.14.18-.13.25s.22.17.54.26l.45.14a5.61,5.61,0,0,1,1.15.68,4.93,4.93,0,0,0,1.59.87l.42.08a3.63,3.63,0,0,0-.66.06c-.32.08-.53.24-.54.41s0,.26.37.39a4.44,4.44,0,0,0,.57.18,2.57,2.57,0,0,1,.91.41,8.79,8.79,0,0,1,1.36,1.37c.24.28.48.55.69.77A10.77,10.77,0,0,0,13,39.42l.1,0c.85.33.85.33.78.68a1.86,1.86,0,0,0-.05.3.69.69,0,0,1-.46.61.61.61,0,0,0-.32.27h0a1.69,1.69,0,0,0,1,.43l.79,0,1.14,0"/><path class="cls-2" d="M11.79,34.78A3.49,3.49,0,0,0,13,36.51a1.06,1.06,0,0,1,.33.68,1.64,1.64,0,0,0,.33.83.81.81,0,0,0,.6.4h.1a.56.56,0,0,0,.36-.53,4.82,4.82,0,0,0-.87-2.15,5.52,5.52,0,0,0-.8-.95,3.16,3.16,0,0,1-.84-1.14c-.08-.27-.19-.43-.34-.48a.34.34,0,0,0-.31.05h0v0s.12.89.24,1.55"/><path class="cls-2" d="M12.58,40.24a4.62,4.62,0,0,0-2.49-1.91c-1.51-.45-4.15-.24-4.28,0,0,0,0,0,0,.09a2.45,2.45,0,0,0,.35.19,5.37,5.37,0,0,1,1.09.69,6.63,6.63,0,0,1,.77.7,2.79,2.79,0,0,0,1.75,1,2.55,2.55,0,0,0,.4,0,13.93,13.93,0,0,0,2.69-.39h0l0,0c-.1-.11-.2-.24-.32-.4"/><path class="cls-2" d="M22.92,42.65h0c.14,0,.47-.62.56-.91a1.69,1.69,0,0,0-.09-1.13l-.25-.33A2.34,2.34,0,0,1,23,40s0-.06-.07-.06,0,0-.08.13a4,4,0,0,1-.15.38,2.57,2.57,0,0,1-.15.29,1.05,1.05,0,0,0-.09,1.07c.23.63.34.83.47.83"/><path class="cls-2" d="M22.9,45a2.26,2.26,0,0,0-.56.91A1.72,1.72,0,0,0,22.43,47l.26.33c.07.1.14.18.18.25s0,.06.07.06h0s0,0,.08-.13a4,4,0,0,1,.15-.38c0-.11.1-.2.15-.29a1,1,0,0,0,.09-1.07c-.25-.69-.35-.86-.51-.82"/><path class="cls-2" d="M24,41.5a2.23,2.23,0,0,0,1.27.52,1.51,1.51,0,0,0,.5-.09A4.8,4.8,0,0,0,28,40.11a.18.18,0,0,0,0-.18c-.08-.09-.3-.06-.56,0A3.56,3.56,0,0,1,27,40a1.63,1.63,0,0,1-.42-.08,2.07,2.07,0,0,0-1.4,0,3,3,0,0,0-1.32,1.44v0h0l.18.12"/><path class="cls-2" d="M31.05,42.69a7.61,7.61,0,0,0-2.24-.43,12.27,12.27,0,0,0-2.82.05,4,4,0,0,0-2.81,2v0h0a16.21,16.21,0,0,0,3.47.52h.44a2.7,2.7,0,0,0,2.27-1.11l.25-.28a2.11,2.11,0,0,1,1.45-.56c.16,0,.23,0,.24-.06s0-.07-.26-.17"/><path class="cls-2" d="M38.09,8.17a3.29,3.29,0,0,1,.15,1,3.07,3.07,0,0,0,.46,1.74,2.83,2.83,0,0,0,2.43,1.33,2.87,2.87,0,0,0,.44,0,.75.75,0,0,1,.3,0s0,0,.05,0,0,0,0,0a1.68,1.68,0,0,1,0-.84,3.6,3.6,0,0,0-.13-1.89A7.11,7.11,0,0,0,41.22,8a3.56,3.56,0,0,0-2.86-1.35l-.9.06,0,0a12.61,12.61,0,0,1,.61,1.48"/><path class="cls-2" d="M45.64,6h0c-.21,0-.43.17-1.08.74l-.18.16a2.58,2.58,0,0,0-1.06,1.68c-.06.27-.11.51-.16.75a10.57,10.57,0,0,1-.48,1.79,7.33,7.33,0,0,1-.7,1.29c-.16.26-.33.53-.5.84a5.12,5.12,0,0,0-.26,2.87c.11.67.45,1.35.68,1.35s.24-.31.3-.62c0-.09,0-.18.06-.25s0-.3-.15-.44a.66.66,0,0,1-.19-.37c0-.2.15-.34.41-.54s.28-.23.45-.39a11.37,11.37,0,0,0,1.9-4.38c0-.29,0-.58,0-.87,0-.91,0-1.76.38-2.07a1.68,1.68,0,0,0,.53-.86c0-.1.06-.19.1-.27A.28.28,0,0,0,45.64,6"/><path class="cls-2" d="M45.42,15.61a3.28,3.28,0,0,0-1.73.34A3,3,0,0,0,42,18.82c0,.36,0,.62,0,.82s0,.26,0,.34l-.13-.15a8.29,8.29,0,0,1-.79-2,3.59,3.59,0,0,0-1.06-2,3,3,0,0,1-.44-.39c-.23-.22-.42-.41-.56-.37s-.09.08-.11.19c-.06.36,0,.4.07.5a1.21,1.21,0,0,1,.22.33.54.54,0,0,0,.22.26c.13.08.24.16.28,1.13a9.28,9.28,0,0,0,.8,3.45,5.28,5.28,0,0,0,.54.66A3.88,3.88,0,0,1,42,23l0,.16a1.44,1.44,0,0,0-.28.31,3.65,3.65,0,0,0-.25,1.11h0a6.38,6.38,0,0,1-.79-.71h0c-.4-.26-.87-.5-1.1-.62l-.08,0a.12.12,0,0,0-.08,0s0,.06,0,.14a1,1,0,0,1,.07.47c0,.08,0,.23-.1.42A6.14,6.14,0,0,0,39,26.51c.16.79,1,1.61,1.23,1.61a.7.7,0,0,1,.28.09,1.58,1.58,0,0,0,.26.09l-.08.08a5.37,5.37,0,0,0-1.34,2.46,4,4,0,0,1-.06.72c0,.25-.06.41,0,.46h0a.21.21,0,0,0,.1,0,.62.62,0,0,0,.24-.46A.88.88,0,0,1,40,31a2.19,2.19,0,0,1,.58-.29,4,4,0,0,0,2-1.44,15.46,15.46,0,0,0,.94-1.69q.23-.48.42-.81l.54-.5.19-.09c.36-.16.7-.32.75-.49a1.36,1.36,0,0,0,0-.46v0h-.1c-.69.06-1.49.17-1.62.39a6.89,6.89,0,0,1-1.27,1.52c-.15.09-.42.26-.71.47a.37.37,0,0,1-.18-.32,2.57,2.57,0,0,1,.15-.6c0-.15.09-.29.12-.41l0,0h0c.06,0,.11-.05.15-.14a6.32,6.32,0,0,0,.51-2c0-.1,0-.21,0-.31v-.19c.07,0,.15-.09.17-.31a4.34,4.34,0,0,0,0-.8A3.24,3.24,0,0,1,42.8,21a1.18,1.18,0,0,0,.18-.85c1.17-.16,1.91-.69,2-1.43a5.18,5.18,0,0,0,.06-.79,2.66,2.66,0,0,1,.06-.6,9.93,9.93,0,0,1,.5-1.64v0h-.19"/><path class="cls-2" d="M35.31,28.27c0,.08,0,.22,0,.4a8.65,8.65,0,0,0,.2,3,5.81,5.81,0,0,0,2,2.26l.15,0a.18.18,0,0,0,.13,0c.11-.09.09-.29.07-.5a2,2,0,0,1,0-.34,5.57,5.57,0,0,0,0-2.33c-.25-.51-.66-1.32-.67-1.33h0a10.34,10.34,0,0,0-2-1.93c-.06,0-.09,0-.11,0s0,.09.07.18a1.11,1.11,0,0,1,.18.54"/><path class="cls-2" d="M32.64,39.46l.09,0a10.83,10.83,0,0,0,3.12-1.6c.21-.22.44-.49.69-.77a8.79,8.79,0,0,1,1.36-1.37,2.57,2.57,0,0,1,.91-.41,4.44,4.44,0,0,0,.57-.18c.32-.13.38-.28.37-.39s-.22-.33-.54-.41a3.66,3.66,0,0,0-2.94.68,6.16,6.16,0,0,0-.89,1.11,3,3,0,0,1-1,1c-.32.19-1,.49-1.67.81a14.83,14.83,0,0,0-2.86,1.5,9.7,9.7,0,0,1-.81.69c-.53.42-1,.82-1.12,1.13a.26.26,0,0,0,0,.24c.17.25.8.29,1.25.32h.5l1.14,0,.79,0a1.69,1.69,0,0,0,1-.43h0a.65.65,0,0,0-.32-.27.69.69,0,0,1-.46-.61,1.86,1.86,0,0,0-.05-.3c-.08-.35-.08-.35.78-.68"/><path class="cls-2" d="M31.41,38.41h.11c.14,0,.35-.07.59-.4a1.64,1.64,0,0,0,.33-.83,1.06,1.06,0,0,1,.33-.68A3.49,3.49,0,0,0,34,34.78c.12-.66.24-1.54.24-1.55v0h0a.35.35,0,0,0-.32-.05.64.64,0,0,0-.33.48,3.16,3.16,0,0,1-.84,1.14,5.93,5.93,0,0,0-.8.95,4.71,4.71,0,0,0-.87,2.15.56.56,0,0,0,.36.53"/><path class="cls-2" d="M35.67,38.33a4.58,4.58,0,0,0-2.49,1.91c-.12.16-.22.29-.32.4l0,0h0a13.93,13.93,0,0,0,2.69.39,2.55,2.55,0,0,0,.4,0,2.76,2.76,0,0,0,1.75-1,7.63,7.63,0,0,1,.77-.69,5.37,5.37,0,0,1,1.09-.69,2.45,2.45,0,0,0,.35-.19s0-.07,0-.09c-.13-.27-2.77-.48-4.28,0"/><polygon class="cls-1" points="59.12 9.07 60.09 9.07 60.09 19.75 61.29 19.75 61.29 20.86 60.09 20.86 60.09 27.69 59.12 27.69 59.12 20.86 57.01 20.86 57.01 27.69 56.04 27.69 56.04 20.86 54.04 20.86 54.04 19.75 56.04 19.75 56.04 9.07 57.01 9.07 57.01 19.75 59.12 19.75 59.12 9.07"/><path class="cls-1" d="M62.21,18.64a.81.81,0,0,1,.8.82.8.8,0,1,1-1.6,0,.81.81,0,0,1,.8-.82"/><path class="cls-1" d="M62.75,20.81H61.68v5.51a1.46,1.46,0,0,0,1,1.18,7.72,7.72,0,0,0,2.74.06c.37-.17.35-.15.55-.12s.45.32.74.3a4,4,0,0,0,.59-.12v3.94h.88v-4s.11-.13.37,0a1.07,1.07,0,0,0,.92,0c.21-.12.14-.38.58-.32s.34.29.63.35a1,1,0,0,0,.93-.15c.23-.23.43-.14.8.06a2.19,2.19,0,0,0,1.42.06c.22-.12.31-.26.59-.26s0,.31.72.38,1.38-.18,1.45-.45,0-5.21,0-5.47.42-.28.7-.28a.61.61,0,0,1,.57.34c0,.15-.06,4.44,0,4.7a.92.92,0,0,0,.48.84,2.28,2.28,0,0,0,1.34.17c.28-.09.11-.49.43-.43s.14.29.79.4a2,2,0,0,0,1.66-.42c.17-.29.07-4.33.13-4.33s.39.23.7.35.54-.12.46-.44-.68-.46-.91-.66-.31-.24-.28-.58-.34-.87-1.22-.9-1.79.26-1.76.67,0,1.53,0,2.4-.06,2.38,0,2.64-.17.37-.43.37a.38.38,0,0,1-.42-.4c0-.26,0-4.84,0-5.13s-.59-.29-1.39-.32a3.77,3.77,0,0,0-.94,0c-.14,0,0-.07-.23-.1s-.43,0-.46.15,0,.55,0,1.16,0,4.11,0,4.4a.38.38,0,0,1-.42.38c-.17,0-.43-.06-.43-.35s0-4.52,0-4.93-.52-.78-1.74-.78-1.58.29-1.58.73,0,2.28,0,2.95v1.86a.47.47,0,0,1-.46.52c-.34,0-.45-.21-.48-.55s0-4.06,0-4.44,0-.84-.63-1a2.68,2.68,0,0,0-1.7,0c-.29.2-.74-.13-.88.08a35.93,35.93,0,0,0,0,4.09c0,.76,0,.9,0,1.16s-.09.69-.41.69a.53.53,0,0,1-.51-.49c0-.23,0-2.34,0-2.59s-.41-.48-1-.39-.56,0-.56-.32-.06-1.36.08-1.36l1.28,0c.23,0,.23-.29.2-.55s.08-.4-.43-.41h-1.4c-.28,0-.73-.11-.73.68s0,1.9.06,2.19a.7.7,0,0,0,.59.58c.26,0,1-.12,1,.14s0,1.39,0,1.66-.23.92-1.31.87-1.39-.41-1.39-.61-.06-5.51-.06-5.51m18.46.72s.61,0,.67.33v4.53c0,.17-.34.39-.74.39a.65.65,0,0,1-.66-.43V21.84c0-.15.29-.35.73-.31m-7.93,0s.61,0,.67.33v4.53c0,.17-.33.39-.74.39a.65.65,0,0,1-.66-.43V21.84c0-.15.29-.35.73-.31m-4.42,0s.61,0,.67.33v4.53c0,.17-.34.39-.74.39a.65.65,0,0,1-.66-.43V21.84c0-.15.29-.35.73-.31"/><path class="cls-1" d="M86.56,16.37,86.5,34.55l1.34.06-.06-14.49L89,24.19,90.46,20s-.09,6.4-.09,6.76.1.86,1.12.93,1.24-.48,1.24-.48a2.08,2.08,0,0,0,1.89.62c1.39-.11,2.09-.21,2.53-.8s.61-1.65.78-1.51a4.93,4.93,0,0,0,1.21,1.79c.88.66,1.11.48,1.44.44s.32-.3.65-.3.21.45.92.41.67-.24,1-.45.72,0,1.16.25a1.82,1.82,0,0,0,1.19.19c.65,0,.61-.44.95-.44s.46.41,1.33.4.56-.33,1.1-.36.39.35,1,.38a.91.91,0,0,0,.88-.42c.17-.13,0,.43.42.43s.23-1.18.25-2,0-3.51,0-3.68,0-.36.55-.36.55.14.61.35,0,4.3,0,4.68a1,1,0,0,0,1.11,1,1.81,1.81,0,0,0,1.36-.48c.13-.14.16.62.94.58s.68-.55.93-.55.13.59.87.59a1.2,1.2,0,0,0,1.16-.76c.1-.27-.23-.55-.57-.55s-.64.07-.64-.11V20.66l-.9,0a4.76,4.76,0,0,0-.78-.08c-.54,0-1.26-.1-1.47.55a11.81,11.81,0,0,0-.09,2.62V26c0,.34-.13.48-.47.52s-.5-.11-.5-.52.07-4.2,0-4.62-.13-.65-.74-.68-2.53,0-2.53,0,0,5.2,0,5.41,0,.52-.4.52-.57-.07-.57-.42,0-5.45,0-5.56-.47-.12-.7,0-.38,0-.89,0-1.34.12-1.47.34a19,19,0,0,0,0,3c0,.88,0,1.86,0,2.16s-.44.52-1.14.52-1.15-.05-1.18-.38,0-4,0-4.24,0-.49.69-.49a4.86,4.86,0,0,0,1.27-.06c.2-.08.24-.77-.22-.85a11.36,11.36,0,0,0-1.85,0c-.48,0-.83.09-.83,1v3.67c0,.68,0,.82,0,1.07s-.37.32-.59.32-.67-.11-.67-.35.06-5.64.06-5.64h-1v5.56a.65.65,0,0,1-.46.52c-.16,0-.45.19-1-1A14.94,14.94,0,0,1,98.6,24l1.74-3.34-1.12,0L98,22.82,97,20.6l-1.2,0,1.47,3.37a25.75,25.75,0,0,1-1.21,2.63,1.59,1.59,0,0,1-1.23.38c-.43,0-1.18-.08-1.26-.24a11,11,0,0,1,0-2.06c.06,0,.41.14.89.14s1.11-.27,1.09-1.26a15.48,15.48,0,0,0-.1-2.49c-.08-.37-.61-.45-1.35-.45-.54,0-1.33.09-1.38.5s-.06,4.22-.06,4.66.08.82-.26.93-.7,0-.73-.17,0-6.4,0-7.25,0-2.88,0-2.88H90.4L89,20.22l-1.18-3.84Zm7.53,5.11s.5,0,.56.14v2c0,.08-.29.18-.62.18s-.55-.13-.55-.2v-2c0-.07.24-.16.61-.14m22.17.05s.61,0,.68.33v4.53c0,.17-.34.39-.74.39a.65.65,0,0,1-.66-.43V21.84c0-.15.29-.35.72-.31m-8.33,0s.61,0,.68.33v4.53c0,.17-.34.39-.74.39a.64.64,0,0,1-.66-.43V21.84c0-.15.28-.35.72-.31"/><path class="cls-1" d="M101.28,18.64a.81.81,0,0,1,.8.82.8.8,0,1,1-.8-.82"/><path class="cls-3" d="M54.08,38.2V35h1.54v.31H54.38v1.12h1.24v.31H54.38V38.2Zm2-2.4h.29v1.27a1.15,1.15,0,0,0,.16.7A.61.61,0,0,0,57,38a.8.8,0,0,0,.36-.08.75.75,0,0,0,.25-.25.63.63,0,0,0,.07-.22,2.15,2.15,0,0,0,0-.44V35.8H58v2.4h-.3v-.26a1,1,0,0,1-.31.25,1,1,0,0,1-.41.07.87.87,0,0,1-.73-.28,1.52,1.52,0,0,1-.22-.93Zm2.45,0h.29v.27a.82.82,0,0,1,.32-.24,1.08,1.08,0,0,1,.42-.08,1,1,0,0,1,.46.1.73.73,0,0,1,.32.28,1.17,1.17,0,0,1,.12.3,3.3,3.3,0,0,1,0,.51V38.2h-.29V36.85a1,1,0,0,0-.16-.61.63.63,0,0,0-.51-.2.69.69,0,0,0-.36.09.53.53,0,0,0-.25.24.83.83,0,0,0-.08.22,4,4,0,0,0,0,.44V38.2h-.29Zm4.75,1.3H61.14a1,1,0,0,0,.28.63.88.88,0,0,0,.63.24.86.86,0,0,0,.47-.14.91.91,0,0,0,.33-.39h.34a1.38,1.38,0,0,1-.45.61,1.11,1.11,0,0,1-.68.22,1.14,1.14,0,0,1-.87-.38,1.25,1.25,0,0,1-.36-.89,1.26,1.26,0,0,1,.35-.91,1.18,1.18,0,0,1,.89-.36,1.13,1.13,0,0,1,.86.37,1.38,1.38,0,0,1,.34,1Zm-.34-.26a1,1,0,0,0-.31-.61A.84.84,0,0,0,62,36a.82.82,0,0,0-.58.22,1.06,1.06,0,0,0-.29.6Zm1,1.36h-.31V35.8h.28v.27a.89.89,0,0,1,.25-.23.7.7,0,0,1,.3-.08v.34a.54.54,0,0,0-.41.17.77.77,0,0,0-.12.48ZM66.69,37a1,1,0,0,0-.26-.66.84.84,0,0,0-.62-.29.85.85,0,0,0-.64.29,1,1,0,0,0-.27.7.94.94,0,0,0,.27.68.84.84,0,0,0,1.26,0,1.07,1.07,0,0,0,.26-.71m0,.84a.94.94,0,0,1-.38.33,1.27,1.27,0,0,1-.52.11,1.15,1.15,0,0,1-.86-.36,1.24,1.24,0,0,1-.34-.89,1.25,1.25,0,0,1,.35-.9,1.18,1.18,0,0,1,.88-.37,1.06,1.06,0,0,1,.5.12,1,1,0,0,1,.37.32V35.8H67v2.4h-.3Zm1.08.38h-.31V35.8h.29v.27a.65.65,0,0,1,.54-.31v.34a.54.54,0,0,0-.41.17.77.77,0,0,0-.12.48Zm1.1-2.69h-.31V35h.31Zm-.31.29h.31v2.4h-.31ZM71.34,37a.93.93,0,0,0-.27-.66.82.82,0,0,0-.61-.29.86.86,0,0,0-.65.29,1,1,0,0,0-.26.7.93.93,0,0,0,.26.68.88.88,0,0,0,.64.28.83.83,0,0,0,.62-.29,1,1,0,0,0,.27-.71m0,.84a1,1,0,0,1-.38.33,1.31,1.31,0,0,1-.52.11,1.13,1.13,0,0,1-.86-.36,1.32,1.32,0,0,1,0-1.79,1.2,1.2,0,0,1,.88-.37,1,1,0,0,1,.5.12,1,1,0,0,1,.38.32V35.8h.29v2.4h-.29Zm.62-.38h.31a.51.51,0,0,0,.13.37.37.37,0,0,0,.31.15.42.42,0,0,0,.29-.11.38.38,0,0,0,.12-.29.45.45,0,0,0-.09-.28.87.87,0,0,0-.34-.19,1.26,1.26,0,0,1-.51-.29.62.62,0,0,1-.12-.4.66.66,0,0,1,.2-.48.66.66,0,0,1,.48-.19.63.63,0,0,1,.48.17.7.7,0,0,1,.19.49h-.32a.44.44,0,0,0-.1-.27.39.39,0,0,0-.26-.09.32.32,0,0,0-.25.1.33.33,0,0,0-.1.25.48.48,0,0,0,0,.18.37.37,0,0,0,.14.14,1.06,1.06,0,0,0,.25.1l.21.07a.65.65,0,0,1,.43.67.69.69,0,0,1-.21.51.72.72,0,0,1-.54.2.68.68,0,0,1-.53-.22.94.94,0,0,1-.21-.6m2,1.11h-.31l.33-.93h.31Zm4.71-2.71a1.35,1.35,0,0,0-.47-.43,1.15,1.15,0,0,0-.59-.14,1.18,1.18,0,0,0-.89.39,1.29,1.29,0,0,0-.37.93,1.38,1.38,0,0,0,.37,1,1.17,1.17,0,0,0,.89.39,1.24,1.24,0,0,0,.58-.14,1.37,1.37,0,0,0,.46-.41H79a1.66,1.66,0,0,1-.57.63,1.49,1.49,0,0,1-.81.22,1.53,1.53,0,0,1-1.15-.48A1.65,1.65,0,0,1,76,36.59a1.68,1.68,0,0,1,.12-.63,1.6,1.6,0,0,1,.36-.54,1.68,1.68,0,0,1,.5-.35,1.67,1.67,0,0,1,1.44.12,1.6,1.6,0,0,1,.58.65Zm1.06,2.36h-.31V35.8h.29v.27a.64.64,0,0,1,.55-.31v.34a.56.56,0,0,0-.41.17.77.77,0,0,0-.12.48Zm3.1-1.1H80.7a1,1,0,0,0,.27.63.88.88,0,0,0,.63.24.9.9,0,0,0,.48-.14.83.83,0,0,0,.32-.39h.34a1.31,1.31,0,0,1-.45.61,1.11,1.11,0,0,1-.68.22,1.17,1.17,0,0,1-.87-.38,1.24,1.24,0,0,1-.35-.89,1.25,1.25,0,0,1,.34-.91,1.18,1.18,0,0,1,.89-.36,1.13,1.13,0,0,1,.86.37,1.38,1.38,0,0,1,.34,1Zm-.33-.26a1.08,1.08,0,0,0-.32-.61.84.84,0,0,0-.59-.21.79.79,0,0,0-.58.22,1,1,0,0,0-.29.6ZM85,36.17a1,1,0,0,1,.36-.31,1,1,0,0,1,.47-.11.82.82,0,0,1,.7.29,1.58,1.58,0,0,1,.22,1V38.2h-.29V36.92a1.14,1.14,0,0,0-.15-.67.6.6,0,0,0-.51-.21.68.68,0,0,0-.35.09.56.56,0,0,0-.24.24.83.83,0,0,0-.08.22,4,4,0,0,0,0,.44V38.2h-.29V36.85a1,1,0,0,0-.16-.61.63.63,0,0,0-.51-.2.74.74,0,0,0-.36.09.56.56,0,0,0-.24.24.83.83,0,0,0-.08.22,4,4,0,0,0,0,.44V38.2h-.3V35.8h.3v.27a.75.75,0,0,1,.32-.24,1.07,1.07,0,0,1,.41-.08,1.14,1.14,0,0,1,.49.11.83.83,0,0,1,.33.31m4.22.81a.93.93,0,0,0-.27-.66.82.82,0,0,0-.61-.29.86.86,0,0,0-.65.29,1,1,0,0,0-.27.7.94.94,0,0,0,.27.68.88.88,0,0,0,.64.28.81.81,0,0,0,.62-.29,1,1,0,0,0,.27-.71m0,.84a1,1,0,0,1-.38.33,1.31,1.31,0,0,1-.52.11,1.13,1.13,0,0,1-.86-.36,1.32,1.32,0,0,1,0-1.79,1.2,1.2,0,0,1,.88-.37,1,1,0,0,1,.5.12,1,1,0,0,1,.38.32V35.8h.29v2.4h-.29Zm1,.38V36.11h-.44V35.8h.44V35h.31v.78H91v.31h-.44V38.2ZM91.38,37a1,1,0,0,0,.26.69.83.83,0,0,0,.64.28.81.81,0,0,0,.64-.28,1,1,0,0,0,.25-.7,1,1,0,0,0-.25-.7.9.9,0,0,0-.66-.27.8.8,0,0,0-.62.28,1,1,0,0,0-.26.7m-.31,0a1.24,1.24,0,0,1,.35-.9,1.13,1.13,0,0,1,.84-.38,1.16,1.16,0,0,1,.87.37,1.22,1.22,0,0,1,.36.88,1.34,1.34,0,0,1-.35.92,1.16,1.16,0,0,1-1.72,0,1.21,1.21,0,0,1-.35-.89m3.08,1.2h-.31V35.8h.29v.27a.64.64,0,0,1,.55-.31v.34a.54.54,0,0,0-.41.17.77.77,0,0,0-.12.48Zm1.1-2.69H95V35h.3Zm-.3.29h.3v2.4H95Zm1,1.2a1,1,0,0,0,.26.69.83.83,0,0,0,.64.28.81.81,0,0,0,.64-.28,1,1,0,0,0,.26-.7,1,1,0,0,0-.26-.7A.9.9,0,0,0,96.8,36a.8.8,0,0,0-.62.28,1,1,0,0,0-.26.7m-.31,0a1.29,1.29,0,0,1,.35-.9,1.13,1.13,0,0,1,.84-.38,1.16,1.16,0,0,1,.87.37A1.22,1.22,0,0,1,98,37a1.34,1.34,0,0,1-.35.92,1.16,1.16,0,0,1-1.72,0,1.25,1.25,0,0,1-.35-.89m2.63.44h.31a.55.55,0,0,0,.12.37A.41.41,0,0,0,99,38a.44.44,0,0,0,.29-.11.38.38,0,0,0,.12-.29.45.45,0,0,0-.09-.28A1,1,0,0,0,99,37.1a1.26,1.26,0,0,1-.51-.29.7.7,0,0,1,.08-.88.73.73,0,0,1,1,0,.7.7,0,0,1,.19.49h-.32a.39.39,0,0,0-.11-.27A.36.36,0,0,0,99,36a.3.3,0,0,0-.24.1.33.33,0,0,0-.1.25.34.34,0,0,0,0,.18.43.43,0,0,0,.13.14,1.28,1.28,0,0,0,.25.1l.22.07a.74.74,0,0,1,.33.26.83.83,0,0,1,.1.41.69.69,0,0,1-.21.51.72.72,0,0,1-.54.2.67.67,0,0,1-.53-.22.84.84,0,0,1-.21-.6m2,1.11h-.3l.33-.93h.31Zm2.5-3.22v1.21h.45a.92.92,0,0,0,.56-.14.55.55,0,0,0,.18-.45.57.57,0,0,0-.18-.47.9.9,0,0,0-.58-.15Zm-.3-.31h.66a2.64,2.64,0,0,1,.45,0,.79.79,0,0,1,.6.43.84.84,0,0,1,.11.45,1,1,0,0,1-.1.45.76.76,0,0,1-.27.32.73.73,0,0,1-.3.12,1.78,1.78,0,0,1-.44,0h-.41V38.2h-.3Zm2.42,3.18h-.31V35.8h.29v.27a.64.64,0,0,1,.55-.31v.34a.56.56,0,0,0-.41.17.77.77,0,0,0-.12.48Zm3.1-1.1h-2.12a.92.92,0,0,0,.27.63.88.88,0,0,0,.63.24.92.92,0,0,0,.48-.14.83.83,0,0,0,.32-.39h.34a1.31,1.31,0,0,1-.45.61,1.11,1.11,0,0,1-.68.22,1.15,1.15,0,0,1-.87-.38,1.25,1.25,0,0,1-.36-.89,1.26,1.26,0,0,1,.35-.91,1.18,1.18,0,0,1,.89-.36,1.13,1.13,0,0,1,.86.37,1.38,1.38,0,0,1,.34,1Zm-.33-.26a1.08,1.08,0,0,0-.32-.61.84.84,0,0,0-.59-.21.79.79,0,0,0-.58.22,1,1,0,0,0-.29.6Zm1.6,1.36h-.28L108,35.8h.32l.75,1.93.76-1.93h.33Zm1.47-2.69h-.3V35h.3Zm-.3.29h.3v2.4h-.3Zm.64,1.64h.31a.55.55,0,0,0,.12.37.4.4,0,0,0,.31.15.44.44,0,0,0,.3-.11.38.38,0,0,0,.12-.29.45.45,0,0,0-.09-.28,1,1,0,0,0-.34-.19,1.26,1.26,0,0,1-.51-.29.7.7,0,0,1,.08-.88.73.73,0,0,1,1,0,.7.7,0,0,1,.19.49h-.32a.39.39,0,0,0-.11-.27.36.36,0,0,0-.26-.09.3.3,0,0,0-.24.1.33.33,0,0,0-.1.25.34.34,0,0,0,0,.18.43.43,0,0,0,.13.14,1.28,1.28,0,0,0,.25.1l.22.07a.74.74,0,0,1,.33.26.83.83,0,0,1,.1.41.69.69,0,0,1-.21.51.72.72,0,0,1-.54.2.67.67,0,0,1-.53-.22.84.84,0,0,1-.21-.6m2.16-1.93h-.31V35h.31Zm-.31.29h.31v2.4h-.31Zm1,1.2a1,1,0,0,0,.26.69.87.87,0,0,0,1.28,0,1,1,0,0,0,.25-.7,1,1,0,0,0-.26-.7.86.86,0,0,0-.65-.27.8.8,0,0,0-.62.28,1,1,0,0,0-.26.7m-.32,0a1.25,1.25,0,0,1,.36-.9,1.13,1.13,0,0,1,.84-.38,1.16,1.16,0,0,1,.87.37A1.22,1.22,0,0,1,116,37a1.34,1.34,0,0,1-.35.92,1.15,1.15,0,0,1-.86.38,1.13,1.13,0,0,1-.86-.38,1.21,1.21,0,0,1-.36-.89m1.17-1.52h-.2l.45-.77h.32Zm1.62.32h.29v.27a.82.82,0,0,1,.32-.24,1.08,1.08,0,0,1,.42-.08,1,1,0,0,1,.46.1.79.79,0,0,1,.32.28.89.89,0,0,1,.11.3,2.27,2.27,0,0,1,0,.51V38.2H118V36.85a.93.93,0,0,0-.16-.61.61.61,0,0,0-.51-.2.74.74,0,0,0-.36.09.56.56,0,0,0-.24.24.83.83,0,0,0-.08.22,4,4,0,0,0,0,.44V38.2h-.29Zm2.89,2.4h-.31v-.58h.31Z"/><path class="cls-3" d="M70.36,13h.88a1,1,0,0,1-.92.86c-.54,0-1.11-.28-1.11-1.34s.53-1.4,1.09-1.4a.84.84,0,0,1,.84.64h.79a1.51,1.51,0,0,0-1.67-1.31,1.84,1.84,0,0,0-1.86,2.06,1.8,1.8,0,0,0,1.75,2A1.42,1.42,0,0,0,71.34,14l.08.48H72v-2.1H70.36Zm7.86,1.44H79V12.94h.83c.58,0,.62.2.62.74a2.74,2.74,0,0,0,.08.78h.88v-.1c-.17-.07-.17-.21-.17-.77,0-.73-.17-.85-.48-1a.93.93,0,0,0,.59-.93,1.09,1.09,0,0,0-1.2-1.1H78.22ZM79,12.28v-1h1c.47,0,.56.3.56.51,0,.39-.2.53-.61.53Zm11.63-1.71h-.81v2.56c0,.48-.22.75-.77.75-.37,0-.68-.24-.68-.78V10.57h-.81v2.58a1.4,1.4,0,0,0,.3.94,1.57,1.57,0,0,0,1.2.48c1,0,1.57-.44,1.57-1.47Zm7.1,2.49h.92a1.18,1.18,0,0,0,1.21-1.24,1.12,1.12,0,0,0-1.18-1.25H96.93v3.89h.8Zm0-.67V11.24h.63c.5,0,.71.16.71.54a.53.53,0,0,1-.6.61Zm8.1.13a1.85,1.85,0,1,0,3.67,0,1.85,1.85,0,1,0-3.67,0m.8,0c0-1.09.6-1.37,1-1.37s1,.28,1,1.37-.61,1.36-1,1.36-1-.27-1-1.36"/><path class="cls-4" d="M123.15,38.56a.58.58,0,0,0-.19-.15.54.54,0,0,0,.34-.16.46.46,0,0,0,.12-.33.5.5,0,0,0-.08-.27.37.37,0,0,0-.2-.17,1.32,1.32,0,0,0-.4,0H122v1.74h.35v-.73h.07l.18,0a.3.3,0,0,1,.1.07,3,3,0,0,1,.19.26l.25.38h.42l-.21-.34a1.91,1.91,0,0,0-.2-.28m-.54-.39h-.26v-.44h.53a.19.19,0,0,1,.13.07.2.2,0,0,1,0,.14.2.2,0,0,1,0,.13.15.15,0,0,1-.1.07,1,1,0,0,1-.31,0"/><path class="cls-4" d="M122.66,36.74a1.68,1.68,0,1,0,1.67,1.68,1.68,1.68,0,0,0-1.67-1.68m0,3.1a1.43,1.43,0,1,1,1.42-1.42,1.43,1.43,0,0,1-1.42,1.42"/></g></g></svg>