<svg xmlns="http://www.w3.org/2000/svg" viewBox="0 0 86.61 33.19"><defs><style>.cls-1,.cls-2{fill:#fff;}.cls-1{fill-rule:evenodd;}</style></defs><g id="Capa_2" data-name="Capa 2"><g id="Capa_1-2" data-name="Capa 1"><path class="cls-1" d="M23.42,22.58a1.72,1.72,0,0,1-1.05-.28c-.5-.34-.59-.7-.61-1.58S22,9.84,22,9.18,21.73,7.24,23.25,7c.24-.11.15-.85.15-.85H20.64L18,14.29c.06-4.11.21-11.95.31-12.42A1.59,1.59,0,0,1,19.55.74c0-.38,0-.69,0-.69L15.25,0V.53s1,.46,1.24,1.06a19.06,19.06,0,0,1,.1,3.61v.94H11A28.08,28.08,0,0,1,11,3c.13-1.08.18-1.69.67-2A2.51,2.51,0,0,1,12.82.7V0H7.7l0,.57S8.94.68,9.2,2.38a58.44,58.44,0,0,1,.25,7.92c-.06,2.54.17,5.54-.73,6.69-.4.51-.92.49-.93.58v.58H11.9a4.16,4.16,0,0,0,0-.5c-.17-.26-1-.23-1.06-.94s0-9.42,0-9.42h2l-.13,6.14s-.08,4.88-.08,5.89a7.13,7.13,0,0,1-.32,2.54,3,3,0,0,1-1.58.73c-.13,0,0,.59,0,.59l5.22,0-.05-.59a4.3,4.3,0,0,1-1.3-.57A3.54,3.54,0,0,1,14.1,20c0-1.06-.13-6.81-.13-7.43s-.05-2.46-.05-2.46l2.4,6.84-1.11,1,1.49,0v0l.83,0v0l1.64,0L18,16.8l2.61-7.25s-.5,10.81-.54,11.39-.19,1.19-.75,1.39c-.39.14-.72.17-1,.26,0,.23,0,.28,0,.37,0,.3,0,.27,0,.27l5.07-.06ZM16.75,7.29l-.1,7.2L14,7.29Z"/><path class="cls-2" d="M13.91,29.21a1.12,1.12,0,0,0,.35.06,1.53,1.53,0,0,0,.88-.36.38.38,0,0,1,.13-.08h0a2.13,2.13,0,0,0-.92-1,1.47,1.47,0,0,0-1,0,1,1,0,0,1-.29,0,1.6,1.6,0,0,1-.3,0c-.18,0-.33-.05-.39,0a.16.16,0,0,0,0,.12,3.46,3.46,0,0,0,1.53,1.27"/><path class="cls-2" d="M15.74,30.9h0a2.8,2.8,0,0,0-2-1.42,9,9,0,0,0-2,0,5.59,5.59,0,0,0-1.56.3c-.15.07-.18.09-.17.11s0,0,.16,0a1.48,1.48,0,0,1,1,.39c.07.06.12.13.18.19a1.82,1.82,0,0,0,1.58.77l.3,0a10.81,10.81,0,0,0,2.42-.37Z"/><path class="cls-2" d="M2.68,8.46a0,0,0,0,0,0,0h0a.43.43,0,0,1,.21,0l.3,0a2,2,0,0,0,1.7-.92,2.14,2.14,0,0,0,.32-1.21,2.12,2.12,0,0,1,.1-.72,8.56,8.56,0,0,1,.43-1v0l-.63,0a2.54,2.54,0,0,0-2,.94,3.25,3.25,0,0,0-.52,2.33,1.15,1.15,0,0,1,0,.59"/><path class="cls-2" d="M.48,5.23c.26.22.26.81.27,1.44,0,.2,0,.41,0,.61a7.75,7.75,0,0,0,1.32,3.05,3.29,3.29,0,0,0,.32.27c.18.14.29.24.28.38a.53.53,0,0,1-.13.26.35.35,0,0,0-.11.3.8.8,0,0,1,0,.18c0,.21.1.43.22.43s.39-.47.47-.94a3.64,3.64,0,0,0-.18-2c-.12-.22-.24-.41-.35-.59a4.55,4.55,0,0,1-.49-.89,7.23,7.23,0,0,1-.33-1.26c0-.16-.07-.33-.11-.51A1.81,1.81,0,0,0,1,4.78l-.12-.1C.39,4.27.23,4.16.09,4.16h0s-.15.09,0,.29a.75.75,0,0,1,.07.18,1.21,1.21,0,0,0,.37.6"/><path class="cls-2" d="M11.14,29.13h.35c.32,0,.75-.05.88-.23a.18.18,0,0,0,0-.16c-.05-.22-.41-.5-.78-.79-.2-.16-.4-.32-.57-.48a10.17,10.17,0,0,0-2-1,12.68,12.68,0,0,1-1.16-.57,2.07,2.07,0,0,1-.66-.72,4.26,4.26,0,0,0-.62-.77,2,2,0,0,0-1-.47h.2a3.69,3.69,0,0,0,1.14-.14c.52-.18.6-.46.6-.47h0a7,7,0,0,0-.72-.61,3,3,0,0,0,.34-.55A6.13,6.13,0,0,0,7.29,20c0-.12,0-.22,0-.28a.7.7,0,0,1,.13-.37c0-.06.06-.1,0-.13s0,0-.08,0C7.15,19.2,6.2,20.3,6,20.52H6s-.29.57-.47.93a1.33,1.33,0,0,0-.09.46A2.15,2.15,0,0,0,5,21.82H4.46a1.27,1.27,0,0,1,0-.34,3.75,3.75,0,0,0-.94-1.71l0-.06.18-.06a.56.56,0,0,1,.2-.06,1.67,1.67,0,0,0,.85-1.12,4.42,4.42,0,0,0-.23-1.62,2.83,2.83,0,0,1-.08-.29.66.66,0,0,1,0-.33c0-.05,0-.08,0-.09s0,0-.06,0l0,0a6.77,6.77,0,0,0-.78.43h0a3.29,3.29,0,0,1-.55.49H3a2.2,2.2,0,0,0-.17-.77,1,1,0,0,0-.2-.22.43.43,0,0,0,0-.11,2.84,2.84,0,0,1,.67-1,5.68,5.68,0,0,0,.37-.46,6.17,6.17,0,0,0,.56-2.41c0-.68.11-.73.2-.79a.31.31,0,0,0,.15-.18A.9.9,0,0,1,4.74,11c.07-.07.1-.1,0-.34,0-.08,0-.13-.08-.14s-.23.11-.38.26A2.38,2.38,0,0,1,4,11a2.53,2.53,0,0,0-.74,1.39,5.71,5.71,0,0,1-.55,1.4.53.53,0,0,1-.09.11c0-.06,0-.14,0-.24s0-.32,0-.57a2.08,2.08,0,0,0-1.17-2,2.28,2.28,0,0,0-1.2-.23H.1v0a7.68,7.68,0,0,1,.35,1.15,1.87,1.87,0,0,1,0,.41,3.7,3.7,0,0,0,0,.55c.06.52.58.89,1.4,1a.81.81,0,0,0,.12.59,2.35,2.35,0,0,1,.1,1.09,3.6,3.6,0,0,0,0,.56c0,.15.07.2.12.21v.13a1.55,1.55,0,0,1,0,.22,4.37,4.37,0,0,0,.36,1.39c0,.07.06.1.1.1h0l.08.29A1.48,1.48,0,0,1,3,19a.27.27,0,0,1-.13.22l-.49-.32a4.92,4.92,0,0,1-.89-1.07c-.09-.15-.65-.22-1.13-.27H.24v0a1,1,0,0,0,0,.32c0,.12.27.23.52.35l.14.06.38.35c.08.14.18.34.29.55a9.48,9.48,0,0,0,.65,1.19,2.85,2.85,0,0,0,1.4,1,1.33,1.33,0,0,1,.4.2.48.48,0,0,1,.14.26,4.5,4.5,0,0,0-2,.42c-.07.07-.1.12-.09.17s.16.12.38.18l.31.1a3.66,3.66,0,0,1,.8.47,3.51,3.51,0,0,0,1.11.61l.29.05a2.57,2.57,0,0,0-.46.05c-.22.05-.37.16-.38.28s0,.18.26.27a2.59,2.59,0,0,0,.4.13,1.74,1.74,0,0,1,.63.28,6.16,6.16,0,0,1,1,1c.17.2.33.38.48.53a7.35,7.35,0,0,0,2.17,1.12l.07,0c.59.23.59.23.54.47q0,.08,0,.21a.5.5,0,0,1-.32.43.46.46,0,0,0-.23.18h0a1.18,1.18,0,0,0,.69.29l.55,0,.79,0"/><path class="cls-2" d="M8.21,24.23a2.41,2.41,0,0,0,.84,1.2.77.77,0,0,1,.23.48,1.17,1.17,0,0,0,.23.58.55.55,0,0,0,.41.27H10a.39.39,0,0,0,.25-.36,3.24,3.24,0,0,0-.61-1.5,4.28,4.28,0,0,0-.55-.66,2.2,2.2,0,0,1-.59-.8.44.44,0,0,0-.24-.33.25.25,0,0,0-.21,0H8s.09.62.17,1.08"/><path class="cls-2" d="M8.76,28A3.22,3.22,0,0,0,7,26.7a5.51,5.51,0,0,0-3,0s0,0,0,.06a1.15,1.15,0,0,0,.24.13,3.7,3.7,0,0,1,.76.49,4.28,4.28,0,0,1,.54.48,1.94,1.94,0,0,0,1.21.72H7.1A8.66,8.66,0,0,0,9,28.33H9l0,0L8.76,28"/><path class="cls-2" d="M16,29.71h0a1.53,1.53,0,0,0,.39-.64,1.14,1.14,0,0,0-.06-.79l-.17-.23a1.29,1.29,0,0,1-.13-.18s0,0,0,0,0,0-.06.09l-.1.27c0,.07-.07.14-.11.2a.76.76,0,0,0-.06.75c.16.43.23.57.32.57"/><path class="cls-2" d="M16,31.31a1.53,1.53,0,0,0-.4.64,1.14,1.14,0,0,0,.07.79l.17.23.13.17s0,0,.05,0h0s0,0,.05-.1.06-.14.11-.26a1.86,1.86,0,0,1,.1-.2.73.73,0,0,0,.07-.75c-.18-.48-.25-.6-.35-.57"/><path class="cls-2" d="M16.73,28.91a1.59,1.59,0,0,0,.89.36,1.17,1.17,0,0,0,.35-.06,3.36,3.36,0,0,0,1.52-1.27.13.13,0,0,0,0-.12c-.06-.07-.22,0-.4,0a1.53,1.53,0,0,1-.3,0,1.1,1.1,0,0,1-.29,0,1.44,1.44,0,0,0-1,0,2.24,2.24,0,0,0-.93,1h0l.12.08"/><path class="cls-2" d="M21.63,29.74a5.51,5.51,0,0,0-1.56-.3,9,9,0,0,0-2,0,2.8,2.8,0,0,0-2,1.42h0a11.06,11.06,0,0,0,2.42.37l.31,0a1.85,1.85,0,0,0,1.58-.77l.18-.19a1.47,1.47,0,0,1,1-.39c.12,0,.16,0,.17,0s0,0-.18-.11"/><path class="cls-2" d="M26.53,5.69a2.14,2.14,0,0,1,.11.72A2.06,2.06,0,0,0,27,7.62a2,2,0,0,0,1.69.92l.31,0a.43.43,0,0,1,.21,0h0a0,0,0,0,0,0,0,1.15,1.15,0,0,1,0-.59,2.52,2.52,0,0,0-.09-1.31,5.19,5.19,0,0,0-.44-1,2.52,2.52,0,0,0-2-.94l-.62,0v0a10,10,0,0,1,.42,1"/><path class="cls-2" d="M31.79,4.16h0c-.15,0-.3.11-.76.52l-.12.1A1.8,1.8,0,0,0,30.17,6c0,.18-.08.35-.11.52a8.42,8.42,0,0,1-.33,1.25,5.63,5.63,0,0,1-.49.9c-.12.18-.23.36-.35.58a3.55,3.55,0,0,0-.18,2c.07.47.31.94.47.94s.17-.22.21-.43,0-.13,0-.18,0-.21-.11-.3a.53.53,0,0,1-.13-.26c0-.14.11-.24.29-.38a3.29,3.29,0,0,0,.31-.27,7.75,7.75,0,0,0,1.33-3c0-.2,0-.41,0-.61,0-.63,0-1.22.26-1.44a1.17,1.17,0,0,0,.38-.6.75.75,0,0,1,.07-.18.21.21,0,0,0-.05-.29"/><path class="cls-2" d="M31.64,10.88a2.3,2.3,0,0,0-1.21.23,2.09,2.09,0,0,0-1.17,2c0,.25,0,.43,0,.57a2.27,2.27,0,0,0,0,.24.53.53,0,0,1-.09-.11,5.32,5.32,0,0,1-.55-1.4A2.6,2.6,0,0,0,27.86,11a1.87,1.87,0,0,1-.31-.27c-.16-.15-.29-.29-.39-.26s-.06.06-.08.14c0,.24,0,.27.05.34a.9.9,0,0,1,.15.23.36.36,0,0,0,.16.18c.09.06.17.11.2.79a6.45,6.45,0,0,0,.55,2.41,4.43,4.43,0,0,0,.38.46c.29.33.65.74.66,1,0,0,0,.07,0,.11a.86.86,0,0,0-.19.22,2.39,2.39,0,0,0-.18.77h0a2.92,2.92,0,0,1-.55-.49h0c-.27-.18-.61-.35-.76-.43l-.06,0s0,0-.06,0,0,0,0,.09a.67.67,0,0,1,0,.33,2.25,2.25,0,0,1-.07.29,4.65,4.65,0,0,0-.24,1.62,1.68,1.68,0,0,0,.86,1.12.52.52,0,0,1,.19.06,1.06,1.06,0,0,0,.19.06l-.06.06a3.74,3.74,0,0,0-.93,1.71,3.91,3.91,0,0,1,0,.51c0,.17,0,.28,0,.31h0l.07,0a.47.47,0,0,0,.17-.33.6.6,0,0,1,.17-.38,1.21,1.21,0,0,1,.4-.2,2.9,2.9,0,0,0,1.4-1,11.9,11.9,0,0,0,.65-1.18,4.72,4.72,0,0,1,.29-.56c.13-.13.26-.25.38-.35l.13-.06c.25-.12.49-.23.52-.35a.74.74,0,0,0,0-.32v0h-.07c-.47.05-1,.12-1.13.27a4.6,4.6,0,0,1-.88,1.07l-.5.32a.26.26,0,0,1-.12-.22,2,2,0,0,1,.1-.42,1.21,1.21,0,0,0,.08-.28h0s.08,0,.11-.1a4.65,4.65,0,0,0,.36-1.39,1.62,1.62,0,0,1,0-.22.57.57,0,0,0,0-.13s.11-.06.13-.21a5.49,5.49,0,0,0,0-.56,2.36,2.36,0,0,1,.09-1.09.78.78,0,0,0,.13-.59c.81-.11,1.33-.48,1.4-1,0-.31,0-.44,0-.55a2.47,2.47,0,0,1,0-.41,9.18,9.18,0,0,1,.35-1.15v0h-.13"/><path class="cls-2" d="M24.6,19.69c0,.06,0,.16,0,.28a5.91,5.91,0,0,0,.14,2.13,4.09,4.09,0,0,0,1.39,1.57l.1,0a.12.12,0,0,0,.09,0c.08-.06.06-.21.05-.35a.64.64,0,0,1,0-.24,4,4,0,0,0,0-1.62c-.17-.36-.46-.92-.46-.93h0c-.26-.31-1.14-1.32-1.36-1.34,0,0-.06,0-.07,0s0,.07,0,.13a.7.7,0,0,1,.13.37"/><path class="cls-2" d="M22.74,27.49l.06,0A7.35,7.35,0,0,0,25,26.34c.15-.15.31-.33.48-.53a6.16,6.16,0,0,1,.95-1,1.82,1.82,0,0,1,.63-.28,2.59,2.59,0,0,0,.4-.13c.23-.09.27-.19.26-.27s-.15-.23-.38-.28a2.53,2.53,0,0,0-2,.47,3.86,3.86,0,0,0-.62.77,2.1,2.1,0,0,1-.67.72,11.48,11.48,0,0,1-1.16.57,10.48,10.48,0,0,0-2,1c-.16.16-.37.32-.56.48-.38.29-.73.57-.79.79a.18.18,0,0,0,0,.16c.12.18.56.21.87.23h.35l.8,0,.54,0a1.19,1.19,0,0,0,.7-.29h0a.4.4,0,0,0-.22-.18.48.48,0,0,1-.32-.43c0-.09,0-.15,0-.21-.05-.24-.05-.24.55-.47"/><path class="cls-2" d="M21.88,26.75H22c.11,0,.25-.05.42-.27a1.28,1.28,0,0,0,.23-.58.68.68,0,0,1,.23-.47,2.46,2.46,0,0,0,.83-1.21c.09-.46.17-1.08.17-1.08h0a.28.28,0,0,0-.22,0,.46.46,0,0,0-.23.33,2.2,2.2,0,0,1-.59.8,4.35,4.35,0,0,0-.56.66,3.36,3.36,0,0,0-.6,1.5.37.37,0,0,0,.25.36"/><path class="cls-2" d="M24.85,26.7A3.25,3.25,0,0,0,23.11,28a2.5,2.5,0,0,1-.22.28v0h0a8.65,8.65,0,0,0,1.87.28h.28a2,2,0,0,0,1.22-.72,4.16,4.16,0,0,1,.53-.48,3.65,3.65,0,0,1,.77-.49,1.15,1.15,0,0,0,.24-.13s0,0,0-.06a5.51,5.51,0,0,0-3,0"/><polygon class="cls-1" points="41.19 6.32 41.86 6.32 41.86 13.76 42.7 13.76 42.7 14.53 41.86 14.53 41.86 19.29 41.19 19.29 41.19 14.53 39.71 14.53 39.71 19.29 39.04 19.29 39.04 14.53 37.65 14.53 37.65 13.76 39.04 13.76 39.04 6.32 39.71 6.32 39.71 13.76 41.19 13.76 41.19 6.32"/><path class="cls-1" d="M43.33,13a.57.57,0,1,1-.55.57.56.56,0,0,1,.55-.57"/><path class="cls-1" d="M43.71,14.5H43v3.83a1,1,0,0,0,.71.83,5.68,5.68,0,0,0,1.92,0c.25-.12.24-.11.38-.09s.31.23.51.21a3,3,0,0,0,.42-.08V22h.61V19.2s.07-.09.26,0a.76.76,0,0,0,.64,0c.15-.08.09-.26.4-.22s.24.2.44.24a.75.75,0,0,0,.65-.1c.16-.16.3-.1.55,0a1.55,1.55,0,0,0,1,0c.16-.08.22-.18.42-.18s0,.21.5.26,1-.12,1-.31,0-3.63,0-3.81.29-.2.49-.2a.43.43,0,0,1,.4.24c0,.1,0,3.09,0,3.27a.64.64,0,0,0,.33.59,1.6,1.6,0,0,0,.93.12c.2-.06.08-.34.3-.3s.1.2.55.28a1.39,1.39,0,0,0,1.16-.29c.12-.2,0-3,.09-3s.27.16.49.24a.23.23,0,0,0,.32-.3c-.06-.22-.48-.32-.64-.47s-.21-.16-.19-.4-.24-.6-.85-.63-1.25.19-1.23.47,0,1.07,0,1.67,0,1.66,0,1.84-.12.26-.29.26a.27.27,0,0,1-.3-.28c0-.18,0-3.37,0-3.57s-.42-.2-1-.22a2.48,2.48,0,0,0-.65,0c-.1,0,0-.06-.16-.08s-.3,0-.32.11,0,.38,0,.8,0,2.87,0,3.07a.26.26,0,0,1-.29.26c-.12,0-.3,0-.3-.24s0-3.15,0-3.43-.35-.54-1.2-.54-1.11.2-1.11.5,0,1.59,0,2.06v1.29a.32.32,0,0,1-.32.36c-.23,0-.31-.14-.33-.38s0-2.82,0-3.09,0-.58-.44-.68a1.93,1.93,0,0,0-1.18,0c-.2.14-.52-.09-.61.06a23.67,23.67,0,0,0,0,2.84v.81c0,.18-.06.49-.28.49a.38.38,0,0,1-.36-.35c0-.16,0-1.63,0-1.81s-.29-.33-.71-.27-.39,0-.39-.22,0-.95.06-.95l.89,0c.16,0,.16-.2.14-.38s0-.28-.3-.28H45c-.19,0-.5-.08-.5.47s0,1.32,0,1.52a.5.5,0,0,0,.42.41c.18,0,.67-.08.69.1s0,1,0,1.15-.16.65-.91.61-1-.29-1-.43,0-3.83,0-3.83M56.57,15s.42,0,.47.23v3.17c0,.11-.24.26-.51.26a.43.43,0,0,1-.46-.3V15.21c0-.1.2-.24.5-.22m-5.52,0s.42,0,.47.23v3.17c0,.11-.24.26-.52.26s-.46-.19-.46-.3V15.21c0-.1.2-.24.51-.22M48,15s.42,0,.47.23v3.17c0,.11-.24.26-.52.26s-.46-.19-.46-.3V15.21c0-.1.2-.24.51-.22"/><path class="cls-1" d="M60.3,11.4l0,12.67.94,0,0-10.09L62,16.85l1-2.94S63,18.37,63,18.62s.07.6.78.65.87-.34.87-.34a1.42,1.42,0,0,0,1.32.43c1-.07,1.45-.14,1.76-.55s.42-1.15.54-1,.23.79.84,1.24.77.34,1,.31.22-.21.45-.21.14.31.64.29.46-.17.7-.31.5,0,.81.17a1.25,1.25,0,0,0,.83.13c.45,0,.43-.3.66-.3s.32.28.93.27.39-.23.76-.25.27.25.71.26a.66.66,0,0,0,.61-.28c.12-.1,0,.29.3.29s.16-.82.17-1.42,0-2.44,0-2.56,0-.25.38-.25.38.1.43.24,0,3,0,3.26a.72.72,0,0,0,.78.68,1.23,1.23,0,0,0,.94-.34c.09-.1.11.43.65.41s.48-.39.65-.39.09.41.61.41a.81.81,0,0,0,.8-.53c.07-.18-.15-.38-.39-.38s-.44.05-.44-.07v-4l-.63,0a3.18,3.18,0,0,0-.55-.06c-.37,0-.88-.07-1,.38a8.27,8.27,0,0,0-.07,1.83c0,.33,0,1.34,0,1.58s-.09.34-.33.36-.35-.07-.35-.36,0-2.93,0-3.22-.09-.45-.51-.48-1.77,0-1.77,0,0,3.62,0,3.77,0,.36-.29.36-.39-.05-.39-.29,0-3.8,0-3.88-.32-.08-.48,0-.26,0-.62,0-.94.09-1,.24a14.39,14.39,0,0,0,0,2.07c0,.61,0,1.29,0,1.5s-.3.37-.79.37-.8,0-.82-.27,0-2.77,0-3,0-.34.48-.34a3.2,3.2,0,0,0,.88,0,.36.36,0,0,0-.15-.59,6.82,6.82,0,0,0-1.28,0c-.34,0-.58.06-.58.69v2.55c0,.48,0,.58,0,.75s-.26.23-.41.23-.47-.08-.47-.25,0-3.93,0-3.93h-.71v3.87a.46.46,0,0,1-.32.36c-.11,0-.32.14-.71-.7a10.92,10.92,0,0,1-.5-1.2l1.21-2.33-.78,0-.88,1.55-.65-1.55-.84,0,1,2.35a17.43,17.43,0,0,1-.84,1.83,1.12,1.12,0,0,1-.86.27c-.29,0-.82-.06-.87-.18a6.89,6.89,0,0,1,0-1.43,5.84,5.84,0,0,0,.61.1.75.75,0,0,0,.76-.88,11.46,11.46,0,0,0-.06-1.74c-.06-.25-.43-.3-.95-.31s-.92.07-1,.35,0,2.94,0,3.25.06.57-.18.64-.49,0-.51-.11,0-4.46,0-5,0-2,0-2H63L62,14.08l-.82-2.67ZM65.54,15s.35,0,.39.1v1.42c0,.05-.19.12-.43.12s-.38-.09-.38-.14v-1.4c0-.05.17-.11.42-.1M81,15s.43,0,.47.23v3.17c0,.11-.24.26-.52.26a.42.42,0,0,1-.45-.3V15.21c0-.1.2-.24.5-.22m-5.81,0s.43,0,.48.23v3.17c0,.11-.24.26-.52.26s-.46-.19-.46-.3V15.21c0-.1.2-.24.5-.22"/><path class="cls-1" d="M70.56,13a.57.57,0,1,1-.56.57.56.56,0,0,1,.56-.57"/><path class="cls-1" d="M37.67,26.61V24.4h1.07v.21h-.86v.78h.86v.22h-.86v1Zm1.39-1.67h.2v.88a.86.86,0,0,0,.11.49.43.43,0,0,0,.36.14.51.51,0,0,0,.25-.06.4.4,0,0,0,.17-.17.33.33,0,0,0,.05-.15,1.2,1.2,0,0,0,0-.31v-.82h.21v1.67h-.21v-.18a.56.56,0,0,1-.21.17.65.65,0,0,1-.29,0,.63.63,0,0,1-.51-.19,1.09,1.09,0,0,1-.15-.65Zm1.7,0H41v.19a.6.6,0,0,1,.22-.17.68.68,0,0,1,.29-.06.79.79,0,0,1,.32.07.56.56,0,0,1,.23.2,1,1,0,0,1,.08.21,2.93,2.93,0,0,1,0,.36v.87h-.2v-.94a.63.63,0,0,0-.12-.43.42.42,0,0,0-.35-.13.49.49,0,0,0-.25.06.4.4,0,0,0-.17.17.34.34,0,0,0-.06.15,2.37,2.37,0,0,0,0,.31v.81h-.21Zm3.31.9H42.59a.67.67,0,0,0,.2.44.6.6,0,0,0,.43.17.52.52,0,0,0,.33-.1.56.56,0,0,0,.23-.27H44a.89.89,0,0,1-.32.43.75.75,0,0,1-.47.15.83.83,0,0,1-.61-.26.92.92,0,0,1-.24-.63.88.88,0,0,1,.24-.63.81.81,0,0,1,.62-.25.79.79,0,0,1,.6.26,1,1,0,0,1,.23.68Zm-.23-.18a.71.71,0,0,0-.22-.42.58.58,0,0,0-.41-.15.56.56,0,0,0-.41.16.69.69,0,0,0-.2.41Zm.68.95h-.21V24.94h.2v.19a.51.51,0,0,1,.17-.16.37.37,0,0,1,.21-.06v.23a.43.43,0,0,0-.28.13.48.48,0,0,0-.09.33Zm1.94-.85a.63.63,0,0,0-.19-.46.56.56,0,0,0-.42-.2.59.59,0,0,0-.45.2.66.66,0,0,0-.19.49.63.63,0,0,0,.19.47.58.58,0,0,0,.44.19.53.53,0,0,0,.43-.2.67.67,0,0,0,.19-.49m0,.59a.66.66,0,0,1-.27.22.73.73,0,0,1-.36.08.79.79,0,0,1-.6-.25.86.86,0,0,1-.24-.62.89.89,0,0,1,.25-.63.81.81,0,0,1,.61-.25.82.82,0,0,1,.35.08.78.78,0,0,1,.26.22v-.26h.21v1.67h-.21Zm.75.26H47V24.94h.2v.19a.51.51,0,0,1,.17-.16.37.37,0,0,1,.21-.06v.23a.44.44,0,0,0-.29.13.55.55,0,0,0-.08.33ZM48,24.74h-.21V24.4H48Zm-.21.2H48v1.67h-.21Zm1.94.82a.68.68,0,0,0-.19-.46.58.58,0,0,0-.43-.2.61.61,0,0,0-.45.2.69.69,0,0,0-.18.49.66.66,0,0,0,.18.47.58.58,0,0,0,.44.19.55.55,0,0,0,.44-.2.71.71,0,0,0,.19-.49m0,.59a.78.78,0,0,1-.63.3.79.79,0,0,1-.6-.25.86.86,0,0,1-.24-.62.88.88,0,0,1,.24-.63.83.83,0,0,1,.62-.25.77.77,0,0,1,.34.08.73.73,0,0,1,.27.22v-.26h.2v1.67h-.2Zm.43-.27h.21a.39.39,0,0,0,.09.26.27.27,0,0,0,.22.1.27.27,0,0,0,.29-.28.25.25,0,0,0-.07-.19.65.65,0,0,0-.23-.14.83.83,0,0,1-.36-.2.47.47,0,0,1-.08-.28.42.42,0,0,1,.14-.33.45.45,0,0,1,.33-.14A.44.44,0,0,1,51,25a.5.5,0,0,1,.13.33h-.22a.27.27,0,0,0-.08-.18.24.24,0,0,0-.18-.06.22.22,0,0,0-.17.07.21.21,0,0,0-.07.17.28.28,0,0,0,0,.13.38.38,0,0,0,.09.09.84.84,0,0,0,.18.07l.15.05a.45.45,0,0,1,.3.47.45.45,0,0,1-.15.35.49.49,0,0,1-.37.14.47.47,0,0,1-.37-.15.57.57,0,0,1-.15-.42m1.38.78H51.3l.23-.65h.21ZM54.79,25a.94.94,0,0,0-.32-.31.91.91,0,0,0-.41-.09.81.81,0,0,0-.62.27.92.92,0,0,0-.26.65,1,1,0,0,0,.26.68.81.81,0,0,0,.62.27.87.87,0,0,0,.4-.09,1,1,0,0,0,.32-.29H55a1.07,1.07,0,0,1-.4.44,1,1,0,0,1-.56.15,1.08,1.08,0,0,1-.8-.33,1.16,1.16,0,0,1-.32-.83,1.08,1.08,0,0,1,.09-.44,1.19,1.19,0,0,1,.25-.38,1.36,1.36,0,0,1,.35-.24,1.16,1.16,0,0,1,.42-.08,1.06,1.06,0,0,1,.58.16,1.15,1.15,0,0,1,.41.46Zm.74,1.64h-.21V24.94h.2v.19a.51.51,0,0,1,.17-.16.37.37,0,0,1,.21-.06v.23a.43.43,0,0,0-.28.13.48.48,0,0,0-.09.33Zm2.16-.77H56.22a.62.62,0,0,0,.19.44.6.6,0,0,0,.43.17.57.57,0,0,0,.34-.1.6.6,0,0,0,.22-.27h.24a.89.89,0,0,1-.32.43.75.75,0,0,1-.47.15.79.79,0,0,1-.6-.26.93.93,0,0,1,0-1.26.81.81,0,0,1,.62-.25.79.79,0,0,1,.6.26,1,1,0,0,1,.23.68Zm-.23-.18a.71.71,0,0,0-.22-.42.62.62,0,0,0-.82,0,.69.69,0,0,0-.2.41Zm1.76-.46a.65.65,0,0,1,.25-.22.73.73,0,0,1,.33-.08.58.58,0,0,1,.49.21,1.11,1.11,0,0,1,.15.66v.84h-.2v-.89a.79.79,0,0,0-.11-.47.42.42,0,0,0-.35-.14.51.51,0,0,0-.25.06.46.46,0,0,0-.17.17.53.53,0,0,0,0,.15,2,2,0,0,0,0,.31v.81H59.1v-.94a.62.62,0,0,0-.12-.42.4.4,0,0,0-.35-.14.51.51,0,0,0-.25.06.4.4,0,0,0-.17.17.34.34,0,0,0-.06.15,2.37,2.37,0,0,0,0,.31v.81h-.21V24.94h.21v.19a.6.6,0,0,1,.22-.17.65.65,0,0,1,.29-.06A.81.81,0,0,1,59,25a.61.61,0,0,1,.23.22m2.94.56A.63.63,0,0,0,62,25.3a.58.58,0,0,0-.43-.2.62.62,0,0,0-.45.2.69.69,0,0,0-.18.49.66.66,0,0,0,.18.47.6.6,0,0,0,.45.19.55.55,0,0,0,.43-.2.67.67,0,0,0,.19-.49m0,.59a.78.78,0,0,1-.63.3.79.79,0,0,1-.6-.25.86.86,0,0,1-.24-.62.85.85,0,0,1,.25-.63.79.79,0,0,1,.61-.25.82.82,0,0,1,.35.08.78.78,0,0,1,.26.22v-.26h.2v1.67h-.2Zm.68.26V25.15h-.31v-.21h.31V24.4h.21v.54h.31v.21h-.31v1.46Zm.82-.84a.71.71,0,0,0,.18.49.58.58,0,0,0,.45.19.58.58,0,0,0,.44-.19.71.71,0,0,0,.18-.49.69.69,0,0,0-.18-.49.6.6,0,0,0-.46-.19.57.57,0,0,0-.43.2.68.68,0,0,0-.18.48m-.22,0a.88.88,0,0,1,.24-.62.79.79,0,0,1,.59-.27.83.83,0,0,1,.61.26.91.91,0,0,1,0,1.25.76.76,0,0,1-.59.27.83.83,0,0,1-.61-.26.9.9,0,0,1-.24-.63m2.15.84h-.22V24.94h.2v.19a.51.51,0,0,1,.17-.16.37.37,0,0,1,.21-.06v.23a.43.43,0,0,0-.28.13.49.49,0,0,0-.08.33Zm.76-1.87h-.21V24.4h.21Zm-.21.2h.21v1.67h-.21Zm.68.83a.71.71,0,0,0,.18.49.58.58,0,0,0,.45.19.58.58,0,0,0,.44-.19.71.71,0,0,0,.18-.49.69.69,0,0,0-.18-.49.59.59,0,0,0-.46-.19.57.57,0,0,0-.43.2.68.68,0,0,0-.18.48m-.22,0a.84.84,0,0,1,.25-.62.76.76,0,0,1,.58-.27.87.87,0,0,1,.86.87.91.91,0,0,1-.24.64.81.81,0,0,1-1.2,0,.87.87,0,0,1-.25-.63m1.83.31h.22a.39.39,0,0,0,.09.26.26.26,0,0,0,.21.1.25.25,0,0,0,.21-.08.28.28,0,0,0,.08-.2.29.29,0,0,0-.06-.19.62.62,0,0,0-.24-.14.73.73,0,0,1-.35-.2.41.41,0,0,1-.09-.28.45.45,0,0,1,.14-.33.49.49,0,0,1,.34-.14.42.42,0,0,1,.33.13.46.46,0,0,1,.14.33h-.23a.27.27,0,0,0-.07-.18.28.28,0,0,0-.18-.06.24.24,0,0,0-.24.24.28.28,0,0,0,0,.13s0,.06.09.09l.17.07.16.05a.58.58,0,0,1,.22.18.52.52,0,0,1,.07.29.48.48,0,0,1-.14.35.51.51,0,0,1-.38.14.48.48,0,0,1-.37-.15.66.66,0,0,1-.15-.42m1.39.78H69.6l.23-.65h.22Zm1.74-2.25v.85h.31a.59.59,0,0,0,.39-.11.38.38,0,0,0,.13-.31.42.42,0,0,0-.13-.33.71.71,0,0,0-.4-.1Zm-.21-.21h.46a1.37,1.37,0,0,1,.31,0,.4.4,0,0,1,.2.07.52.52,0,0,1,.22.22.69.69,0,0,1,.08.32.82.82,0,0,1-.07.31.62.62,0,0,1-.19.23.66.66,0,0,1-.21.08,1.3,1.3,0,0,1-.31,0h-.28v.93h-.21ZM73,26.61h-.21V24.94H73v.19a.51.51,0,0,1,.17-.16.37.37,0,0,1,.21-.06v.23a.43.43,0,0,0-.28.13.48.48,0,0,0-.09.33Zm2.16-.77H73.71a.67.67,0,0,0,.2.44.6.6,0,0,0,.43.17.54.54,0,0,0,.33-.1.56.56,0,0,0,.23-.27h.24a1,1,0,0,1-.32.43.78.78,0,0,1-.47.15.83.83,0,0,1-.61-.26.92.92,0,0,1-.24-.63.88.88,0,0,1,.24-.63.86.86,0,0,1,1.22,0,1,1,0,0,1,.23.68ZM75,25.66a.71.71,0,0,0-.22-.42.58.58,0,0,0-.41-.15.56.56,0,0,0-.41.16.64.64,0,0,0-.2.41Zm1.11.95h-.19l-.64-1.67h.22L76,26.29l.53-1.35h.22Zm1-1.87h-.21V24.4h.21Zm-.21.2h.21v1.67h-.21Zm.45,1.14h.21a.39.39,0,0,0,.09.26.27.27,0,0,0,.22.1.27.27,0,0,0,.28-.28.29.29,0,0,0-.06-.19.65.65,0,0,0-.23-.14.72.72,0,0,1-.36-.2.41.41,0,0,1-.08-.28.42.42,0,0,1,.14-.33.48.48,0,0,1,.67,0,.5.5,0,0,1,.13.33h-.23a.27.27,0,0,0-.07-.18.24.24,0,0,0-.18-.06.24.24,0,0,0-.24.24.28.28,0,0,0,0,.13.38.38,0,0,0,.09.09.84.84,0,0,0,.18.07l.15.05a.58.58,0,0,1,.22.18.52.52,0,0,1,.07.29.45.45,0,0,1-.14.35.51.51,0,0,1-.38.14.5.5,0,0,1-.37-.15.61.61,0,0,1-.14-.42m1.5-1.34h-.21V24.4h.21Zm-.21.2h.21v1.67h-.21Zm.68.83a.71.71,0,0,0,.18.49.58.58,0,0,0,.45.19.58.58,0,0,0,.44-.19.71.71,0,0,0,.18-.49.69.69,0,0,0-.18-.49.6.6,0,0,0-.46-.19.57.57,0,0,0-.43.2.68.68,0,0,0-.18.48m-.22,0a.84.84,0,0,1,.25-.62.76.76,0,0,1,.58-.27.87.87,0,0,1,.86.87.87.87,0,0,1-.25.64.76.76,0,0,1-.59.27.79.79,0,0,1-.6-.26.87.87,0,0,1-.25-.63m.81-1.06h-.14l.32-.53h.22Zm1.13.23h.2v.19a.63.63,0,0,1,.23-.17.65.65,0,0,1,.29-.06.83.83,0,0,1,.32.07.53.53,0,0,1,.22.2.66.66,0,0,1,.08.21,1.6,1.6,0,0,1,0,.36v.87h-.21v-.94a.69.69,0,0,0-.11-.43.44.44,0,0,0-.36-.13.51.51,0,0,0-.25.06.4.4,0,0,0-.17.17.53.53,0,0,0,0,.15,2,2,0,0,0,0,.31v.81H81Zm2,1.67h-.21v-.4H83Z"/><path class="cls-1" d="M49,9.07h.62a.66.66,0,0,1-.64.6c-.38,0-.78-.2-.78-.94s.37-1,.76-1a.58.58,0,0,1,.58.44h.56a1.06,1.06,0,0,0-1.17-.91,1.29,1.29,0,0,0-1.29,1.44,1.25,1.25,0,0,0,1.22,1.42,1,1,0,0,0,.83-.41l0,.34h.37V8.61H49Zm5.48,1H55V9h.58c.41,0,.43.15.43.52a1.76,1.76,0,0,0,.06.55h.61V10c-.12,0-.12-.14-.12-.54s-.11-.59-.33-.69a.64.64,0,0,0,.41-.64.76.76,0,0,0-.84-.77H54.49ZM55,8.56V7.83h.69c.33,0,.39.21.39.36s-.14.37-.42.37Zm8.11-1.2h-.57V9.15c0,.33-.16.52-.54.52s-.47-.17-.47-.55V7.36H61v1.8a1.06,1.06,0,0,0,.21.66,1.12,1.12,0,0,0,.84.33c.67,0,1.1-.31,1.1-1ZM68.08,9.1h.64a.83.83,0,0,0,.85-.87.79.79,0,0,0-.83-.87H67.53v2.72h.55Zm0-.47v-.8h.44c.35,0,.49.11.49.37a.37.37,0,0,1-.41.43Zm5.64.09a1.29,1.29,0,1,0,2.56,0,1.29,1.29,0,1,0-2.56,0m.56,0c0-.76.42-1,.72-1s.72.19.72,1-.42.95-.72.95-.72-.19-.72-.95"/><path class="cls-2" d="M85.79,26.86l-.13-.1a.46.46,0,0,0,.24-.12.31.31,0,0,0,.08-.22.31.31,0,0,0-.06-.19.24.24,0,0,0-.14-.12.94.94,0,0,0-.28,0H85v1.21h.25v-.5h.17a.18.18,0,0,1,.08.05,1.28,1.28,0,0,1,.12.18l.18.26h.29l-.14-.24-.14-.19m-.38-.27h-.18v-.31h.37a.11.11,0,0,1,.09.05.12.12,0,0,1,0,.09.16.16,0,0,1,0,.1.18.18,0,0,1-.07,0h-.22"/><path class="cls-2" d="M85.45,25.6a1.17,1.17,0,1,0,1.16,1.16,1.16,1.16,0,0,0-1.16-1.16m0,2.16a1,1,0,1,1,0-2,1,1,0,0,1,0,2"/></g></g></svg>