<svg xmlns="http://www.w3.org/2000/svg" viewBox="0 0 258.33 126.84"><defs><style>.cls-1{fill:#8eaec3;}.cls-2{fill:#5f84a0;}.cls-3{fill:#194468;}.cls-4{fill:#1b3c33;fill-rule:evenodd;}</style></defs><g id="Capa_2" data-name="Capa 2"><g id="Capa_1-2" data-name="Capa 1"><path class="cls-1" d="M54.05,41.42s1.2-13,10.13-21.58c0,0,2.86-4,5.25-2.4,5.59,5.84-.89,7,7,14.73,0,0,.46,3.6-3.69,6.45-11-4.83-10.92,2-18.69,2.8"/><path class="cls-1" d="M58.25,54.15c-.19-.32-2.39-2.85-.74-4.42s2.49,2.4,5.62,1.57,7.64-6.45,11.23-5.25C94.05,56.46,77,71.12,58.25,54.15"/><path class="cls-2" d="M58.59,57.1c7.5,6.42,4.12,10.36-3.38,3.94s-4.12-10.36,3.38-3.94"/><path class="cls-3" d="M73.06,41.77c4,2.58,8,5.73,9.51,10.35C85.23,59.77,76,65.26,69.41,62.53c-.36-.16-1.1-.35-.78-.86,1.12-.57,2.54.6,3.74.54,6,.81,12.07-5,8.78-11.08-1.22-2.68-6.46-8.31-9.2-8.31-2.57,2.24-6.12,3.61-9.49,2.6-2-.88-.27-3,.95-3.7a9.21,9.21,0,0,1,8.18-.57.71.71,0,0,0,1-.25c7.21-10.8.39-7.62-2.63-15.11C66.43,16.41,61,19.74,58,27.3c-2.5,5.44-2.81,11.45-2.72,17.35C54.72,53.81,66,55.94,67.74,64.08c.1,4-13.92-6.1-14.62-8.19-1.67-1.35-2-6.69,1.11-5.19A3.28,3.28,0,0,1,55,52.11a.92.92,0,0,1-1.76.53c.42-.24.44-.43,1-.42l-.83-.86C50.08,55.57,63.2,63.1,66.76,64c-2-7.67-12.64-9.84-12.35-18.63-1.75-8,5.46-37.62,15.8-21.72,2.66,9.21,11.52,5.63,2.85,18.09m-1.68.3C68.59,41,63.63,41,62.58,44.25c2.71,1.6,6.5-.25,8.8-2.18"/><path class="cls-3" d="M43,36.89A1.73,1.73,0,0,1,45.12,35c4.91,1.83,5.93,8.25,7.94,12.53-.18,3.38-2.54-4.24-2.93-4.86-1.2-2.43-2.26-5.59-5-6.7-1-.51-1.67,1.12-.78,1.63,1.4,1.08-1.48,1.31-1.36-.7"/><path class="cls-3" d="M40.32,42.38c2-7.75,10,3.27,11.13,6.62.48.71.35,2.15-.61,1-.8-2.36-7.4-13.19-9.58-7.92,0,.38,0,.79.58.67,1.77.52-1.44,2.29-1.52-.39"/><path class="cls-3" d="M216,68.15a1.89,1.89,0,0,0,.89.28.73.73,0,0,0,.66-.34c.17-.11,1.17-1.17,2.28-2.22,2.23-2.12,2.84-2.84,2.84-3.51v-.11c0-.78-1.39-1.78-2.34-1.78s-1.22.45-3,2.89-2.11,3.06-2.11,3.68.16.77.78,1.11"/><path class="cls-3" d="M257.55,80.16c-.55,0-.77.17-1.94,1.56A47.59,47.59,0,0,1,248,89.06a12.41,12.41,0,0,1-2.39,1.23,5,5,0,0,1-.83.22,1.64,1.64,0,0,1-.84-.33,4,4,0,0,1-1.67-3.62,10.67,10.67,0,0,1,.39-2.5,27.75,27.75,0,0,1,3.39-7.85,2.62,2.62,0,0,0,.51-1c0-.11,0-.17-.06-.23a1,1,0,0,0-.89-.39,2.86,2.86,0,0,0-2.17,1l-.5.66-.56-1.28A7.26,7.26,0,0,0,241.14,73a2.53,2.53,0,0,0-1.89-.89c-.22,0-.44-.06-.67-.06-1.44,0-2.44.56-4,1.95a26,26,0,0,0-4.71,7c-.66.49-1.7,1.32-2.8,2.2-4.39,3.67-6.29,5-8.18,6a7.48,7.48,0,0,1-3.11.95,2.39,2.39,0,0,1-2.28-1.51,3.6,3.6,0,0,1-.34-1.67c0-1.94,1-5,2.78-9.17a16.84,16.84,0,0,1,1.4-2.73,1.41,1.41,0,0,0,.22-.72c0-.39-.22-.62-.78-.67-.17,0-.28-.06-.45-.06-.77,0-1.33.45-2,1.51a31.79,31.79,0,0,0-3,6.24l-.74.65c-1.73,1.51-6.06,6-7.4,7.57-.22.28-.44.5-.56.5V90A19.1,19.1,0,0,1,203,88c.78-3.4,1.39-6.73,1.73-9.24a27.36,27.36,0,0,0,.22-3.61,5.11,5.11,0,0,0-.22-2.06c-.06-.17-.45-.22-.84-.22a1.4,1.4,0,0,0-.89.22c0,.05-.11.11-.16.11s-.17-.11-.34-.33a3.75,3.75,0,0,0-2.61-2.06,5.07,5.07,0,0,0-1.17-.17,5.82,5.82,0,0,0-2.56.72c-2.62,1.2-5.24,4.63-7.16,9.19l-.57.22a20.86,20.86,0,0,1-5.67,1.5c-.23,0-.5,0-.73,0a4.82,4.82,0,0,1-3.56-1.39c-.5-.44-.66-.67-.66-1,0-.11.05-.22.05-.39a21,21,0,0,0,.28-3,7.61,7.61,0,0,0-.22-1.89,2.67,2.67,0,0,0-2.12-1.78,1.34,1.34,0,0,1-.83-.23,2,2,0,0,0-1.45-.39,5.69,5.69,0,0,0-1,.12c-1.06.27-2.78,1.78-3.84,3.5a19.33,19.33,0,0,0-2.1,5.06c-.77.9-2.08,2.48-3.52,4.29-5.73,7.17-9.9,11.29-12.4,12.18a2.45,2.45,0,0,1-.89.22c-.39,0-.61-.17-1.11-.61a8.16,8.16,0,0,1-1.95-4,16,16,0,0,1-.28-3.17,49.66,49.66,0,0,1,1.11-10.07l.5-2.28,2.4-3.11A57,57,0,0,0,159,59.08c2.11-5.34,3.17-9.29,3.17-12a5.21,5.21,0,0,0-1.11-3.61,1.66,1.66,0,0,0-1.51-.61h-.94l-1.06,1.39a39.6,39.6,0,0,0-3.89,6.56,112.93,112.93,0,0,0-8.85,25.42,12.51,12.51,0,0,1-.94,3.45c-.28.34-.45.56-.45.78a.33.33,0,0,0,.26.32l0,0a21,21,0,0,1-5.68,1.5c-.22,0-.5,0-.72,0a4.82,4.82,0,0,1-3.56-1.39c-.5-.44-.67-.67-.67-1,0-.11.06-.22.06-.39a22.43,22.43,0,0,0,.27-3,7.61,7.61,0,0,0-.22-1.89,2.65,2.65,0,0,0-2.11-1.78,1.4,1.4,0,0,1-.84-.23,2,2,0,0,0-1.44-.39,5.58,5.58,0,0,0-1,.12,8.39,8.39,0,0,0-3.84,3.5A19.34,19.34,0,0,0,121.83,81c-.37.63-.86,1.56-1.56,2.93-4.79,9.4-7,12.63-9.24,14.41a1.56,1.56,0,0,1-.72.39c-.33,0-.61-.45-1-1.39a8.8,8.8,0,0,1-.5-3.62V92.51c0-3.89.73-8.12,2.4-14.35,1-3.78,3.83-12.24,5.17-15.58l.83-2,2.34-.06h1.22c3.4,0,9.46.33,11.91.61,4.28.56,6.73,1.23,7.62,2.12a1.49,1.49,0,0,0,1,.5h.17A.72.72,0,0,0,142,63a2.25,2.25,0,0,0-1-1.66c-2.17-1.9-12.35-3.68-21.08-3.73a6.31,6.31,0,0,1-1.56-.11c0-.06.45-1,.89-2.28A7.46,7.46,0,0,0,120,53c0-.45-.28-.56-.89-.56-1,0-1.61.78-2.67,3.12l-1,2.11-2.06.11c-8,.45-18.07,2.11-19,3a1,1,0,0,0-.33.72,1.73,1.73,0,0,0,.45,1,1.19,1.19,0,0,0,1.05.56,6.78,6.78,0,0,0,1.73-.28A82.39,82.39,0,0,1,108,61.14c3.61-.34,5.06-.5,5.67-.5.34,0,.39,0,.39.11a22.77,22.77,0,0,1-1,2.72,134.11,134.11,0,0,0-5.76,17.44l-.7.81A47.57,47.57,0,0,1,99,89.06a12.71,12.71,0,0,1-2.39,1.23,4.76,4.76,0,0,1-.84.22,1.62,1.62,0,0,1-.83-.33,4,4,0,0,1-1.67-3.62,10.17,10.17,0,0,1,.39-2.5,27.75,27.75,0,0,1,3.39-7.85,2.69,2.69,0,0,0,.5-1c0-.11,0-.17,0-.23a1,1,0,0,0-.89-.39,2.84,2.84,0,0,0-2.17,1l-.5.66-.56-1.28A7.51,7.51,0,0,0,92.12,73a2.53,2.53,0,0,0-1.89-.89c-.22,0-.45-.06-.67-.06-1.45,0-2.45.56-4,1.95a25.64,25.64,0,0,0-4.51,6.55c-.43.28-1,.67-1.78,1.24-1.89,1.44-5.9,3.56-7,3.72a1,1,0,0,1-.39.06c-.28,0-.45-.17-.73-.56-.72-.94-1-2.5-1-5.5s-.11-4-.78-4.68a2.39,2.39,0,0,0-1.66-.5,4,4,0,0,0-1.79.39c-1.83,1-5.61,4.67-8.4,8.12A20.07,20.07,0,0,1,55.74,85v0a76.41,76.41,0,0,1,4.34-10.68,2.84,2.84,0,0,0,.5-1.23c0-.44-.28-.66-.84-.78a2.24,2.24,0,0,0-.55-.05c-.84,0-1.34.5-2.12,1.83a35.79,35.79,0,0,0-2.69,6.64c-.23.23-.52.56-.92,1a47.59,47.59,0,0,1-7.57,7.34,12.41,12.41,0,0,1-2.39,1.23,5,5,0,0,1-.83.22,1.64,1.64,0,0,1-.84-.33,4,4,0,0,1-1.67-3.62,10.67,10.67,0,0,1,.39-2.5A27.77,27.77,0,0,1,44,76.21a2.69,2.69,0,0,0,.5-1c0-.11,0-.17-.06-.23a1,1,0,0,0-.89-.39,2.86,2.86,0,0,0-2.17,1l-.5.66-.55-1.28A7.51,7.51,0,0,0,39,73a2.57,2.57,0,0,0-1.9-.89c-.22,0-.44-.06-.66-.06C35,72,34,72.6,32.43,74a26.33,26.33,0,0,0-4.67,6.89c-.38.63-.88,1.58-1.61,3-4.79,9.4-7,12.63-9.24,14.41a1.56,1.56,0,0,1-.72.39c-.34,0-.61-.45-1-1.39a8.8,8.8,0,0,1-.5-3.62V92.51c0-3.89.73-8.12,2.39-14.35,1.06-3.78,3.84-12.24,5.18-15.58l.83-2,2.34-.06H26.7c3.4,0,9.46.33,11.91.61,4.28.56,6.73,1.23,7.62,2.12a1.49,1.49,0,0,0,1,.5h.17a.72.72,0,0,0,.5-.73A2.25,2.25,0,0,0,47,61.31c-2.17-1.9-12.35-3.68-21.08-3.73a6.31,6.31,0,0,1-1.56-.11c0-.06.45-1,.89-2.28A7.46,7.46,0,0,0,25.87,53c0-.45-.28-.56-.89-.56-1,0-1.62.78-2.67,3.12l-.95,2.11-2.06.11c-8,.45-18.08,2.11-19,3a1,1,0,0,0-.33.72,1.73,1.73,0,0,0,.45,1A1.19,1.19,0,0,0,1.5,63a6.78,6.78,0,0,0,1.73-.28,82.39,82.39,0,0,1,10.68-1.61c3.61-.34,5.06-.5,5.67-.5.34,0,.39,0,.39.11a21.85,21.85,0,0,1-1.06,2.72,127.81,127.81,0,0,0-6.17,19.25,45.74,45.74,0,0,0-1.11,9.13,15.57,15.57,0,0,0,1.16,6.5c.67,1.34,1.06,1.73,2,2.06a4.77,4.77,0,0,0,1.28.17,4.46,4.46,0,0,0,1.94-.39,15.57,15.57,0,0,0,4-4c.76-1.12,1.95-3.26,3.42-6.08a3,3,0,0,0,2,2.52,4.1,4.1,0,0,0,1.06.22c1.78,0,3.62-1.78,7.23-6.56l1.51-2,.16,1.89a8.42,8.42,0,0,0,.5,3,5.51,5.51,0,0,0,2.78,2.72,6.24,6.24,0,0,0,1.9.22,9.57,9.57,0,0,0,2.28-.27c2.33-.84,5.17-3.29,8.12-7,.07-.09.17-.22.31-.38-.25.91-.5,1.87-.76,2.88a18.51,18.51,0,0,0-.83,4.12,1.28,1.28,0,0,0,.16.72c.17.28.45.39,1,.39.72,0,.72,0,2.5-2.62a67.09,67.09,0,0,1,10-11.84,11.48,11.48,0,0,1,1.94-1.62,11,11,0,0,1,.12,2.23c0,5.78.89,8,3.44,8.51a4.62,4.62,0,0,0,1.12.17,6.44,6.44,0,0,0,1-.12,22.89,22.89,0,0,0,6.67-3.41A15.64,15.64,0,0,0,78.43,89a5.82,5.82,0,0,0,.12,1.06,3,3,0,0,0,2,2.61,4,4,0,0,0,1.06.22c1.78,0,3.61-1.78,7.23-6.56l1.5-2,.17,1.89a8.19,8.19,0,0,0,.5,3,5.51,5.51,0,0,0,2.78,2.72,6.21,6.21,0,0,0,1.89.22A9.5,9.5,0,0,0,98,91.85c2.34-.84,5.17-3.29,8.12-7,.09-.13.26-.32.48-.57a41.73,41.73,0,0,0-.81,7.58,15.4,15.4,0,0,0,1.17,6.5c.66,1.34,1,1.73,2,2.06a4.77,4.77,0,0,0,1.28.17,4.51,4.51,0,0,0,2-.39,15.71,15.71,0,0,0,4-4,102.42,102.42,0,0,0,5.11-9.42,4.33,4.33,0,0,0,2,3.41,3.23,3.23,0,0,0,1.28.28,4.14,4.14,0,0,0,1.78-.44c1.5-.67,4-3.79,5.17-6.62l.39-.89,1.12.55a10,10,0,0,0,4.28.89,14.89,14.89,0,0,0,6.51-1.6c0,.15,0,.31-.06.49a49.15,49.15,0,0,0-.28,5.34,27.29,27.29,0,0,0,.17,3.45c.72,4.34,2.67,7.12,5.28,7.45a5.71,5.71,0,0,0,1,.06c2.33,0,4.45-1.23,7.51-4.23a133.35,133.35,0,0,0,8.51-10.38v0c0,.28-.06.56-.06.84,0,2.33.84,4.17,2.11,4.78a3.27,3.27,0,0,0,1.28.28,4.07,4.07,0,0,0,1.78-.44c1.51-.67,3.95-3.79,5.18-6.62l.39-.89,1.11.55A10.08,10.08,0,0,0,182,84a13.75,13.75,0,0,0,1.62-.11,13.37,13.37,0,0,0,4.58-1.34c0,.13-.09.26-.13.39a17.8,17.8,0,0,0-1.23,6.18v.78c0,2.72.78,3.78,2.67,4.23a3,3,0,0,0,.67.05c2.67,0,5.62-3.34,10-11.51a8.1,8.1,0,0,1,1.22-2,.25.25,0,0,1,.06.17c0,1-1.28,6.12-3.12,12.68a12.52,12.52,0,0,1-1.56,4C190.08,106.92,184.9,117.21,184,123a6.86,6.86,0,0,0-.11,1.44c0,1.34.5,2.06,1.5,2.29a3,3,0,0,0,.67.11c1.94,0,3.84-2.23,6.51-7.74A126.94,126.94,0,0,0,199.81,100c1.12-3.9,1.28-4.12,2.23-5.29,2-2.5,4.39-5.34,7.73-9l.48-.53a11.34,11.34,0,0,0-.15,1.64,4.75,4.75,0,0,0,.06,1c.44,2.34,1.72,3.61,4.23,4.17a7,7,0,0,0,1.5.17,9.88,9.88,0,0,0,2.06-.28,20.78,20.78,0,0,0,5.56-3.06c1-.78,3.1-2.65,4.93-4.36a14.72,14.72,0,0,0-1,4.64,5.85,5.85,0,0,0,.11,1.06,3,3,0,0,0,2,2.61,4.1,4.1,0,0,0,1.06.22c1.78,0,3.62-1.78,7.23-6.56l1.5-2,.17,1.89a8.42,8.42,0,0,0,.5,3,5.51,5.51,0,0,0,2.78,2.72,6.21,6.21,0,0,0,1.89.22,9.44,9.44,0,0,0,2.28-.27c2.34-.84,5.18-3.29,8.13-7,.5-.67,3.22-3.51,3.22-4.34v-.06c0-.17-.33-.28-.78-.28M151.7,64.31c.89-2.67,2.55-6.9,3.78-9.9,1-2.34,3.56-7.74,3.84-8,.05,0,.05.11.05.28a35.52,35.52,0,0,1-.72,5,71.94,71.94,0,0,1-7.51,17.63,12.56,12.56,0,0,1-1.73,2.73s0,0,0-.06a77.55,77.55,0,0,1,2.34-7.73M37.05,80.66a84.78,84.78,0,0,1-6.73,8.4,6.16,6.16,0,0,1-1.67,1.51c-.17,0-.22-.28-.22-.73a15.57,15.57,0,0,1,.89-4.39c1.55-4.62,4.89-10.18,6.67-11.13.11,0,.17-.11.28-.11.5,0,1,.72,1.56,2a5.51,5.51,0,0,1,.72,1.89c0,.61-.44,1.17-1.5,2.61m53.12,0a84.78,84.78,0,0,1-6.73,8.4,6,6,0,0,1-1.67,1.51c-.16,0-.22-.28-.22-.73a15.57,15.57,0,0,1,.89-4.39c1.56-4.62,4.9-10.18,6.68-11.13.11,0,.16-.11.27-.11.5,0,1,.72,1.56,2a5.3,5.3,0,0,1,.72,1.89c0,.61-.44,1.17-1.5,2.61M130,79.11a3.35,3.35,0,0,1,.16.94c0,.67-.33,1.34-1.17,3.12A16.33,16.33,0,0,1,125.77,88c-.55.5-.83.72-1,.72a.42.42,0,0,1-.34-.22,4.29,4.29,0,0,1-.61-2.62,19,19,0,0,1,.78-5c.33-1.28.44-1.39.89-1.44s.61-.28,1.06-1.17c.61-1.28,2.67-3.56,3.28-3.56.22,0,.33,0,.33.16a4,4,0,0,1-.22.67,4.53,4.53,0,0,0-.22,1.56,5.55,5.55,0,0,0,.28,2m44.72,0a3.41,3.41,0,0,1,.17.94c0,.67-.34,1.34-1.17,3.12A16.73,16.73,0,0,1,170.5,88c-.56.5-.84.72-1.06.72a.41.41,0,0,1-.33-.22,4.29,4.29,0,0,1-.61-2.62,19,19,0,0,1,.77-5c.34-1.28.45-1.39.89-1.44s.62-.28,1.06-1.17c.61-1.28,2.67-3.56,3.28-3.56.23,0,.34,0,.34.16a3.47,3.47,0,0,1-.23.67,4.79,4.79,0,0,0-.22,1.56,5.79,5.79,0,0,0,.28,2m24.7-.28c-2.12,3.67-3.73,6.17-5.4,8.51a35.56,35.56,0,0,1-2.5,3.23l-1,1.11-.23-.5a4,4,0,0,1-.22-1.5c0-2.56,1.17-6.9,2.89-10.52,1.56-3.17,3.79-5.84,5.35-6.45a.65.65,0,0,1,.33-.06c.56,0,1.11.45,1.61,1.39a3.47,3.47,0,0,1,.56,1.67c0,.73-.39,1.51-1.39,3.12m-4.84,26.7c0,.72-4,10.63-5.73,14.07-.45.84-1.11,2.12-1.5,2.73l-.67,1.11.05-.78a29.51,29.51,0,0,1,1.95-6c1.39-3.34,5.45-11.24,5.9-11.24ZM239.2,80.66a84.78,84.78,0,0,1-6.73,8.4,6.32,6.32,0,0,1-1.67,1.51c-.17,0-.23-.28-.23-.73a15.93,15.93,0,0,1,.89-4.39c1.56-4.62,4.9-10.18,6.68-11.13.11,0,.17-.11.28-.11.5,0,1,.72,1.56,2a5.51,5.51,0,0,1,.72,1.89c0,.61-.45,1.17-1.5,2.61"/><polygon class="cls-4" points="104.75 0 103.1 0 103.1 17.77 99.51 17.77 99.51 0 97.86 0 97.86 17.77 94.46 17.77 94.46 19.61 97.86 19.61 97.86 30.97 99.51 30.97 99.51 19.61 103.1 19.61 103.1 30.97 104.75 30.97 104.75 19.61 106.79 19.61 106.79 17.77 104.75 17.77 104.75 0"/><path class="cls-4" d="M109.7,17.28a1.36,1.36,0,0,0-2.71,0,1.36,1.36,0,0,0,2.71,0"/><path class="cls-4" d="M143.6,21.6c-.39-.34-.53-.38-.49-1,.38-1.93-5.14-1.81-5.06-.39s-.1,7-.05,8.39c.11.87-1.53.82-1.44-.05,0-.43,0-8-.05-8.53.31-.65-3.78-.57-4-.46-.24-.17-1.09-.37-1.17.08-.07,1.58,0,7.9,0,9.25,0,.83-1.4.87-1.45.05,0-.49-.09-7.52,0-8.2.58-1.53-6.17-1.82-5.64-.09,0,.72,0,3.8,0,4.91v3.09a.8.8,0,1,1-1.59-.05c0-.58-.1-6.75-.1-7.38.58-1.9-3.15-2.15-4-1.64-.49.34-1.26-.21-1.5.15-.29,1,0,7.19,0,8.72.15,1.28-1.36,1.59-1.56.34-.39-1.38,1.19-5.58-1.73-5-1,.14-1,.05-1-.53s-.11-2.27.13-2.27c.63-.16,3,.68,2.52-.87.22-1.23-2.67-.49-3.12-.67-.48,0-1.24-.18-1.24,1.13.26,2-.64,4.14,1.11,4.61.44,0,1.64-.2,1.69.24s0,2.31,0,2.75c.28,1.89-4.51,1.73-4.58.43,0-.34-.1-9.16-.1-9.16h-1.83v9.16c.12,2.6,4.82,2.4,6.4,2.07,1.29-.74,1.63.81,3.19.1v6.55h1.5V30.76c.33-.24,1.71.59,2.2.1.85-1,1.21-.43,2,.05,1.23.48,1.75-1,2.94-.15,1.32.62,2.37,0,3.42-.34.49,0,.08.52,1.23.63s2.34-.29,2.45-.74,0-8.66,0-9.09c.13-.74,2.05-.58,2.16.09.36,1.21-.92,8.56.78,9.21a3.93,3.93,0,0,0,2.26.29c.48-.14.19-.82.73-.72.86.93,3.51.92,4.17,0,.29-.49.12-7.21.21-7.21,2.18,1.43,3-.16.44-1.26m-22.81,7.22c0,.79-2.43.8-2.38-.08v-7.5c.06-.54,1.9-.92,2.38,0v7.55m7.52,0c0,.79-2.44.8-2.38-.08v-7.5c.06-.54,1.9-.92,2.38,0v7.55m13.47,0c0,.79-2.43.8-2.38-.08v-7.5c.06-.54,1.9-.92,2.38,0v7.55"/><path class="cls-4" d="M203.89,29.09c-.57,0-1.09.12-1.09-.17V19.27c-1.33.39-4.48-1-5.35.82-.47,2.61,0,5.77-.15,8.14.13,1.09-1.81,1.26-1.66,0-.42-8.66,2.48-9.13-5.5-8.88,0,0,.06,8.65.06,9,.27,1-1.75,1.23-1.67.17,0-.57.07-9.08,0-9.26-.81-.42-1.46.27-2.7,0-3.8-.34-2.4,2.33-2.59,5.51-.38,2.62,1.24,4.4-1.92,4.46-1.18,0-2-.09-2-.64s0-6.6,0-7.06c-.44-1.29,3.16-.62,3.32-.91.35-.13.41-1.27-.36-1.41-1.51.11-4.65-1-4.55,1.6,0,2.27,0,6.06,0,7.87-.08.81-2,.69-2.14,0,0-.41.09-9.38.09-9.38h-1.73v9.24a1.08,1.08,0,0,1-.78.87c-1,.78-3.05-4.71-3-4.56l3-5.55-1.91-.05-2.14,3.69-1.59-3.69-2,0,2.5,5.6a42,42,0,0,1-2.05,4.37c-.79.94-3.51.74-4.23.23a17.18,17.18,0,0,1-.05-3.42c1,.26,3.48.65,3.35-1.86s1.09-5.17-2.46-4.9c-.91,0-2.26.16-2.35.84-.37,1.2.51,8.84-.54,9.29-.59.18-1.19.05-1.23-.27-.07-2.43-.13-14.11-.05-16.85h-2.09l-2.32,6.37-2-6.37-2.2,0-.11,30.24,2.29.11-.11-24.1,2.07,6.76,2.48-7s-.15,10.65-.15,11.24c-.33,1.93,3.78,1.87,4,.75.32,1.44,7,1.24,7.51-.29.74-1,1-2.75,1.32-2.52.74,1.83,2.92,5.06,5.62,3.21.57,0,.34.75,1.55.69s1.14-.4,1.71-.74c1.34-.49,2.32,1.13,4,.72,1.11-.06,1-.72,1.62-.72s.78.67,2.25.65,1-.54,1.88-.6.65.59,1.71.63a1.54,1.54,0,0,0,1.49-.68c.29-.23,0,.71.73.71.95.21.28-9.18.45-9.53-.33-.76,2.12-.76,2,0,.12.35-.05,7.16,0,7.79-.11,2.05,3.56,1.83,4.19.81.23-.23.29,1,1.6,1s1.17-.91,1.59-.91c1.42,2.55,5.22-.7,2.48-1.21m-42.4-4.87V20.87a2.05,2.05,0,0,1,2,0v3.38c0,.34-2,.37-2,0m25.7,4.6c0,.79-2.43.8-2.38-.08v-7.5c.06-.54,1.9-.92,2.38,0v7.55m14.16,0c0,.79-2.43.8-2.38-.08v-7.5c.06-.54,1.9-.92,2.38,0v7.55"/><path class="cls-4" d="M174.75,18.64a1.36,1.36,0,0,0,0-2.72,1.36,1.36,0,0,0,0,2.72"/></g></g></svg>