<svg xmlns="http://www.w3.org/2000/svg" viewBox="0 0 8.96 8.96"><defs><style>.cls-1{fill:#fff;}.cls-2{fill:#1a3c34;fill-rule:evenodd;}</style></defs><g id="Capa_2" data-name="Capa 2"><g id="Capa_1-2" data-name="Capa 1"><path class="cls-1" d="M4.48,0A4.48,4.48,0,1,0,9,4.48,4.49,4.49,0,0,0,4.48,0"/><path class="cls-2" d="M6.46,2.38A2.85,2.85,0,0,0,2,5.81l-.4,1.47,1.51-.4a2.77,2.77,0,0,0,1.35.35h0a2.84,2.84,0,0,0,2-4.85m-2,4.37h0a2.31,2.31,0,0,1-1.2-.33l-.08,0-.9.23.24-.87-.06-.09a2.39,2.39,0,0,1-.36-1.25A2.37,2.37,0,0,1,4.45,2a2.34,2.34,0,0,1,1.67.69,2.36,2.36,0,0,1-1.68,4M5.74,5l-.48-.23c-.07,0-.12,0-.16,0l-.23.28s-.08,0-.15,0a1.83,1.83,0,0,1-.57-.35,2,2,0,0,1-.4-.49c0-.07,0-.11,0-.15L3.89,4A.47.47,0,0,0,4,3.85a.12.12,0,0,0,0-.12s-.16-.39-.22-.53-.11-.12-.16-.12H3.44a.24.24,0,0,0-.19.08.82.82,0,0,0-.25.6,1.42,1.42,0,0,0,.29.73A3.12,3.12,0,0,0,4.5,5.56a2.72,2.72,0,0,0,.41.15.89.89,0,0,0,.45,0,.74.74,0,0,0,.48-.34.78.78,0,0,0,0-.33A.48.48,0,0,0,5.74,5"/></g></g></svg>